<svg data-v-423bf9ae="" xmlns="http://www.w3.org/2000/svg" viewBox="0 0 203.04732840400186 181" class="iconAboveSlogan"><!----><!----><!----><g data-v-423bf9ae="" id="956f45e0-c018-4a04-abbe-d102a3475c13" fill="black" transform="matrix(4.811547979456921,0,0,4.811547979456921,-0.6736196512551516,82.16599475502056)"><path d="M6.88 11.33L7.83 13.52L9.31 13.52L5.03 4.36L4.42 4.36L0.14 13.52L1.61 13.52L2.58 11.33ZM6.37 10.17L3.09 10.17L4.74 6.44ZM13.70 6.55C11.62 6.55 10.13 8.20 10.13 10.14C10.13 12.09 11.62 13.73 13.70 13.73C14.70 13.73 15.48 13.33 15.75 13.06L15.75 11.92C15.23 12.30 14.62 12.63 13.70 12.63C12.24 12.63 11.29 11.47 11.29 10.14C11.29 8.82 12.24 7.64 13.70 7.64C14.62 7.64 15.23 7.97 15.75 8.35L15.75 7.22C15.48 6.96 14.70 6.55 13.70 6.55ZM23.56 9.87C23.56 8.00 22.52 6.55 20.41 6.55C18.48 6.55 17.12 8.20 17.12 10.14C17.12 12.09 18.61 13.73 20.69 13.73C21.75 13.73 22.46 13.26 22.74 12.99L22.74 11.85C22.29 12.18 21.67 12.63 20.69 12.63C19.37 12.63 18.47 11.69 18.31 10.54L23.56 10.54ZM18.33 9.58C18.53 8.50 19.29 7.64 20.41 7.64C21.37 7.64 22.31 8.26 22.45 9.58ZM33.15 4.33L31.92 4.33L31.92 9.86C31.92 11.72 30.75 12.43 29.38 12.44C28.01 12.46 26.84 11.72 26.84 9.86L26.84 4.33L25.61 4.33L25.61 9.90C25.61 12.29 27.23 13.70 29.38 13.70C31.53 13.70 33.15 12.29 33.15 9.90ZM39.16 6.55C38.12 6.55 37.28 7.12 36.80 7.85L36.80 6.69L35.68 6.69L35.68 16.80L36.80 16.80L36.80 12.61C37.39 13.26 38.27 13.73 39.05 13.73C40.92 13.73 42.34 12.25 42.34 9.99C42.34 7.92 40.92 6.55 39.16 6.55ZM38.98 7.64C40.30 7.64 41.18 8.67 41.18 9.99C41.18 11.32 40.30 12.63 38.84 12.63C38.01 12.63 37.39 12.14 36.82 11.43L36.80 10.12C36.79 8.65 37.73 7.64 38.98 7.64Z"></path></g><!----><g data-v-423bf9ae="" id="87f31a5c-ab0c-4234-a1c1-287fa8a4b14d" transform="matrix(1.1884352905382398,0,0,1.1884352905382398,42.57815168858063,-14.286615210865975)" stroke="none" fill="black"><path d="M77.951 12.136a18.687 18.687 0 00-.432 0c-2.77.035-5.634.72-8.452 2.073-4.399 2.113-9.068 6.204-11.954 10.473-1.163 1.722-1.804 2.976-2.476 4.848-1.074 2.992-1.204 4.114-1.236 10.726-.027 5.693-.061 6.24-.48 7.709-1.04 3.65-2.293 5.423-7.696 10.885l-4.38 4.429 1.552 1.55 1.551 1.552 4.32-4.331c2.377-2.382 4.909-4.741 5.627-5.242 1.81-1.264 2.915-1.798 4.907-2.375 2.381-.69 5.076-.918 8.554-.722 8.302.469 13.383-1.39 19.164-7.009 4.217-4.099 6.777-8.173 8.02-12.763.582-2.152.619-6.566.07-8.553-.883-3.2-2.39-5.813-4.68-8.11-3.332-3.344-7.523-5.087-11.979-5.14zm-.043 2.102c2.559.001 2.959.053 4.421.563.884.308 2.24.932 3.014 1.386 1.627.954 4.29 3.537 5.404 5.243 4.431 6.78 2.462 15.622-5.203 23.36-3.472 3.506-6.705 5.397-10.591 6.198-2.224.458-6.609.41-8.67-.097-5.808-1.427-9.686-6.047-10.392-12.378-.55-4.925.851-10.05 3.811-13.945 2.444-3.217 7.074-7.011 10.533-8.632 2.884-1.352 4.455-1.7 7.673-1.697zm.835 1.804l-.116 1.306-.116 1.306-1.905.058c-2.182.067-2.392-.058-2.448-1.453-.029-.724-.046-.692-.15.29l-.119 1.105-1.905.058c-1.64.05-1.943.008-2.172-.301-.253-.342-.276-.342-.466-.008-.11.193-.398.36-.641.372-.408.018-.404.03.06.16.497.137.503.164.503 2.34v2.202h-4.02l-.116-1.206c-.102-1.052-.121-1.095-.15-.338-.055 1.38-.286 1.64-1.499 1.672l-1.048.029 1.043.127c.574.07 1.1.184 1.171.255.248.248.33 3.547.1 3.978-.209.388-.373.416-2.174.363l-1.948-.058-.12-.904c-.079-.585-.132-.705-.151-.338-.041.767-.374 1.34-.79 1.359-.277.012-.285.037-.044.123.613.22.804.747.804 2.223 0 2.038-.145 2.25-1.565 2.297l-1.148.037 1.105.071c1.426.092 1.608.343 1.608 2.217 0 2.094-.12 2.25-1.766 2.298l-1.35.039 1.307.069c.92.048 1.38.167 1.557.401.29.383.342 3.218.068 3.65-.097.154-.525.347-.95.43l-.775.149.746.023c.927.029 1.15.394 1.199 1.97.035 1.15.037 1.146.15-.34l.115-1.506 1.948-.058c1.82-.054 1.964-.029 2.18.376.258.48.197 3.461-.076 3.735-.091.091-.77.22-1.506.285l-1.34.12 1.35.031c1.441.034 1.73.239 1.793 1.274.016.256.083.104.15-.338l.123-.804h4.019l.087 1.306c.057.84.111 1.055.153.603.036-.387.114-1 .174-1.363l.109-.66 2.05.057 2.049.057.116 1.206c.113 1.158.119 1.169.151.267.058-1.592.03-1.573 2.272-1.573 1.88 0 2.004.025 2.16.448l.167.45.142-.45c.079-.247.295-.453.48-.459.273-.008.25-.072-.113-.326-.41-.286-.452-.477-.45-2.049.003-.954.078-1.85.168-1.993.12-.19.698-.243 2.157-.2l1.993.057.117 1.206c.112 1.158.118 1.169.15.268.054-1.48.133-1.57 1.412-1.61l1.134-.037-1-.077c-.55-.042-1.114-.173-1.255-.29-.267-.221-.372-3.244-.135-3.864.1-.26.48-.318 2.086-.318 2.082 0 2.3.089 2.468 1.005.077.42.097.395.12-.157.017-.407.153-.708.357-.786.304-.117.303-.146-.008-.373-.283-.207-.328-.561-.28-2.228l.059-1.982 1.205-.111 1.206-.111-1.206-.09-1.205-.09v-4.22l1.406-.09 1.407-.091-1.407-.11-1.406-.11-.058-2.094c-.063-2.278-.011-2.397 1.062-2.453.515-.027.486-.05-.2-.154l-.804-.122-.116-1.407-.115-1.407-.035 1.216c-.02.669-.144 1.324-.277 1.457-.154.154-.942.241-2.189.241-1.59 0-1.97-.058-2.07-.318-.227-.592-.133-3.81.12-4.062.132-.133.788-.259 1.456-.28l1.216-.038-1.199-.073c-1.367-.085-1.703-.284-1.74-1.03-.022-.431-.05-.398-.152.175l-.124.703-1.879.058c-1.212.038-1.978-.025-2.16-.175-.17-.142-.295-.678-.316-1.365l-.035-1.13zm-7.75 2.938c.262-.002.586.005.99.017l1.906.059v4.42l-1.948.058c-1.765.052-1.968.02-2.16-.338-.302-.564-.27-3.482.042-3.91.162-.22.386-.3 1.17-.306zm4.622 0c.262-.002.586.005.99.017l1.906.059v4.42l-1.912.057c-1.316.04-1.99-.02-2.16-.19-.34-.34-.335-3.59.006-4.056.162-.222.386-.302 1.17-.307zm4.815.008c.245-.003.52 0 .824.01l1.879.058V23.477l-2.036.057c-1.723.048-2.054.007-2.16-.268-.068-.178-.125-1.12-.125-2.092 0-1.27.08-1.833.281-2 .137-.114.602-.177 1.337-.186zm.625 4.78c.908.01 1.809.109 1.96.29.152.183.213.974.176 2.261l-.058 1.98-1.913.057c-1.315.04-1.99-.02-2.16-.19-.333-.334-.339-3.814-.006-4.147.178-.179 1.093-.26 2.001-.25zm-4.672.01c1.277 0 1.843.08 2.01.281.152.183.213.974.176 2.26l-.058 1.98-1.949.058c-1.765.052-1.968.02-2.16-.338-.273-.51-.276-3.344-.004-3.852.182-.34.434-.389 1.985-.389zm9.395 0c2.233 0 2.278.046 2.278 2.311 0 2.266-.045 2.311-2.278 2.311-1.18 0-1.95-.088-2.103-.241-.152-.152-.24-.915-.24-2.07 0-1.154.088-1.917.24-2.07.153-.152.923-.24 2.103-.24zm-14.042.003c.963.002 1.867.077 2.01.167.19.121.243.718.2 2.258L73.89 28.3l-1.949.057c-1.765.052-1.968.02-2.16-.338-.272-.51-.276-3.344-.004-3.852.182-.339.432-.388 1.96-.386zm-4.377.004c.818.011 1.615.068 1.765.164.19.12.243.718.201 2.257l-.057 2.094-1.92.057c-1.055.031-1.982-.006-2.06-.084-.077-.077-.14-1.065-.14-2.196 0-1.688.057-2.076.318-2.177.235-.09 1.074-.125 1.893-.115zm18.42 4.816c2.22 0 2.277.056 2.277 2.21 0 2.155-.057 2.211-2.278 2.211-1.18 0-1.95-.088-2.103-.241-.15-.15-.24-.893-.24-1.97 0-1.076.09-1.819.24-1.969.153-.153.923-.24 2.103-.24zm-14.785.025c.261-.002.585.005.99.017l1.905.059v4.22l-1.948.057c-1.765.052-1.968.02-2.16-.338-.3-.56-.269-3.282.042-3.708.162-.222.386-.302 1.17-.307zm4.621 0c.262-.002.586.005.99.017l1.906.059v4.22l-1.948.057c-1.765.052-1.968.02-2.16-.338-.3-.56-.27-3.282.042-3.708.162-.222.386-.302 1.17-.307zm-12.266 0c1.541-.012 1.55.24 1.55 2.186 0 2.193-.017 2.21-2.263 2.21-1.41 0-1.949-.07-2.024-.266-.056-.147-.076-1.119-.043-2.16l.058-1.894 1.963-.058c.287-.008.539-.016.759-.017zm17.081.008c.245-.003.52 0 .824.01l1.879.058.058 1.993c.042 1.458-.012 2.036-.201 2.157-.415.262-3.661.204-3.936-.071-.358-.358-.325-3.66.04-3.962.136-.113.6-.176 1.336-.185zM65.25 28.7h4.019v4.22l-1.963.058c-1.511.044-1.987-.005-2.068-.216-.058-.15-.079-1.126-.047-2.168l.059-1.894zm-.7 4.507l.216.56c.311.807.15 3.445-.224 3.681-.365.231-3.414.25-3.771.024-.19-.12-.244-.698-.201-2.157l.058-1.993 1.961-.057 1.962-.058zm21.23.015c2.22 0 2.277.055 2.277 2.21s-.057 2.21-2.278 2.21c-1.18 0-1.95-.088-2.103-.24-.15-.15-.24-.894-.24-1.97s.09-1.819.24-1.97c.153-.152.923-.24 2.103-.24zm-14.785.025c.261-.002.585.005.99.017l1.905.058.058 1.993c.042 1.459-.011 2.037-.2 2.157-.143.09-1.053.166-2.023.167-1.709.003-1.77-.012-1.96-.512-.282-.745-.243-3.16.06-3.574.161-.221.385-.301 1.17-.306zm4.621 0c.262-.002.586.005.99.017l1.906.058.058 1.993c.042 1.459-.012 2.037-.201 2.157-.142.09-1.047.166-2.01.167-1.528.003-1.778-.046-1.96-.385-.296-.555-.262-3.278.047-3.7.162-.222.386-.302 1.17-.307zm4.815.008c.245-.003.52 0 .824.01l1.879.058.058 1.878c.037 1.213-.025 1.98-.176 2.16-.302.365-3.604.399-3.961.04-.358-.357-.325-3.659.04-3.961.136-.113.6-.176 1.336-.185zm-15.181.067h4.019l.057 1.993c.043 1.46-.011 2.037-.2 2.157-.143.09-.983.164-1.867.164s-1.724-.074-1.866-.164c-.19-.12-.244-.698-.201-2.157l.058-1.993zm-1.596 4.544c.819.003.94.093 1.102.397.339.632.176 3.561-.212 3.806-.367.232-3.415.252-3.773.025-.19-.12-.244-.698-.201-2.157l.058-1.993 1.948-.057c.455-.014.806-.022 1.078-.021zm7.21 0c.273-.001.623.007 1.078.02l1.948.058.058 1.993c.042 1.459-.011 2.037-.2 2.157-.36.227-3.407.207-3.774-.025-.388-.245-.55-3.174-.212-3.806.162-.304.284-.394 1.102-.397zm4.945.01c.246-.003.52 0 .824.01l1.88.058.057 1.88c.038 1.212-.025 1.978-.175 2.16-.348.419-3.461.391-3.887-.035-.427-.426-.455-3.54-.035-3.887.136-.113.6-.177 1.336-.185zm4.622 0c.245-.003.52 0 .824.01l1.879.058.058 1.88c.037 1.212-.025 1.978-.176 2.16-.348.419-3.46.391-3.887-.035-.426-.426-.454-3.54-.035-3.887.137-.113.602-.177 1.337-.185zm-15.181.068h4.019l.057 1.993c.043 1.459-.011 2.037-.2 2.157-.143.09-.983.164-1.867.164s-1.724-.074-1.866-.164c-.19-.12-.244-.698-.201-2.157l.058-1.993zm5.975 4.548c.222 0 .474.007.76.015l1.905.059.058 1.993c.042 1.459-.011 2.036-.2 2.157-.143.09-1.002.165-1.91.167-1.44.003-1.701-.053-2.06-.437-.321-.346-.409-.371-.409-.122 0 .175-.143.373-.318.44-.47.18-3.358.142-3.658-.048-.19-.12-.244-.698-.201-2.157l.058-1.993h4.019l.113 1.607.114 1.608.037-1.318c.047-1.696.138-1.975 1.692-1.971zm4.584.006c.246-.003.52 0 .824.01l1.88.058.057 1.993c.042 1.459-.012 2.036-.201 2.157-.142.09-.998.165-1.902.167-1.23.002-1.723-.076-1.96-.313-.426-.426-.454-3.539-.034-3.887.136-.113.6-.176 1.336-.185zm-36.954 22.21l-5.346 5.086h7.605l1.127-1.399-3.386-3.687zm-7.957 7.497l-2.723 2.858 7.727.156 2.722-2.858-7.726-.156zm-5.446 5.426l-2.792 2.813h8.239l2.792-2.813h-8.24zm-5.078 5.224c-.327.468-1.015.999-1.04 1.593 0 .876 2.226 3.127 3.379 3.415.035.01.26-.09.502-.217.564-.3 4.96-4.395 4.96-4.62l-7.8-.17z"></path><path d="M22.049 12.136c-4.456.053-8.647 1.796-11.98 5.14-2.288 2.297-3.797 4.91-4.68 8.11-.548 1.987-.511 6.401.072 8.553 1.243 4.59 3.802 8.664 8.02 12.763 5.78 5.62 10.86 7.478 19.163 7.01 3.478-.197 6.173.03 8.554.72.715.208 1.314.41 1.874.642l4.81-4.82c-.31-.71-.564-1.448-.803-2.29-.419-1.467-.453-2.015-.48-7.708-.032-6.612-.161-7.734-1.235-10.726-.672-1.872-1.314-3.126-2.477-4.848-2.887-4.27-7.555-8.36-11.954-10.473-2.818-1.354-5.682-2.037-8.452-2.072a16.91 16.91 0 00-.432 0zm.043 2.102c3.217-.002 4.789.346 7.673 1.698 3.459 1.62 8.089 5.415 10.533 8.632 2.96 3.895 4.36 9.02 3.812 13.945-.706 6.331-4.585 10.95-10.394 12.378-2.06.506-6.445.555-8.669.097-3.886-.801-7.12-2.693-10.591-6.198-7.665-7.738-9.634-16.58-5.203-23.36 1.115-1.706 3.777-4.29 5.404-5.244.773-.453 2.13-1.077 3.014-1.386 1.462-.51 1.862-.56 4.42-.562zm-.835 1.804v.003zm0 .003l-.035 1.128c-.021.686-.146 1.222-.316 1.364-.182.15-.948.213-2.16.176l-1.88-.059-.124-.703c-.1-.573-.129-.606-.15-.175-.038.746-.374.946-1.742 1.03l-1.198.074 1.215.038c.669.02 1.325.146 1.457.279.252.252.347 3.47.12 4.063-.1.26-.48.318-2.07.318-1.248 0-2.035-.087-2.19-.242-.132-.132-.256-.788-.276-1.456l-.035-1.216-.116 1.407-.115 1.406-.804.122c-.686.105-.715.127-.2.154 1.073.056 1.124.176 1.062 2.453l-.058 2.094-1.406.11-1.407.11 1.407.09 1.406.092v4.22l-1.206.09-1.205.09 1.205.11 1.206.111.058 1.982c.049 1.667.004 2.021-.28 2.228-.31.228-.31.257-.007.373.203.079.34.38.357.786.023.552.043.578.12.157.168-.916.386-1.004 2.468-1.004 1.605 0 1.985.058 2.085.317.238.62.133 3.643-.134 3.865-.141.117-.706.247-1.256.29l-1 .077 1.134.036c1.28.04 1.359.131 1.412 1.61.033.901.039.89.15-.268l.117-1.205 1.993-.058c1.46-.043 2.037.011 2.157.2.09.143.166 1.04.168 1.993.002 1.573-.04 1.763-.45 2.05-.363.253-.385.317-.113.325.186.006.402.213.48.46l.143.449.166-.45c.156-.422.28-.448 2.16-.448 2.242 0 2.215-.019 2.273 1.574.032.9.038.89.15-.268l.117-1.205 2.05-.058 2.049-.057.109.66c.06.363.138.977.173 1.364.042.451.097.236.153-.603l.088-1.306h4.019l.122.803c.067.442.135.595.151.339.063-1.036.352-1.24 1.794-1.275l1.349-.031-1.34-.12c-.737-.065-1.415-.193-1.506-.285-.273-.273-.334-3.254-.077-3.734.216-.405.36-.43 2.18-.377l1.949.058.114 1.507c.113 1.485.116 1.49.151.338.049-1.574.271-1.94 1.199-1.969l.746-.023-.775-.15c-.426-.082-.853-.275-.95-.428-.274-.433-.222-3.268.067-3.65.177-.235.637-.353 1.557-.402l1.307-.069-1.35-.039c-1.645-.047-1.765-.203-1.765-2.298 0-1.873.182-2.124 1.608-2.216l1.105-.072-1.148-.037c-1.42-.046-1.565-.259-1.565-2.296 0-1.477.19-2.004.804-2.223.241-.087.233-.111-.043-.124-.417-.02-.75-.592-.791-1.359-.02-.366-.073-.247-.15.338l-.121.905-1.948.057c-1.802.053-1.966.026-2.173-.362-.231-.432-.15-3.731.098-3.979.07-.07.598-.185 1.172-.255l1.042-.127-1.048-.028c-1.212-.033-1.444-.292-1.497-1.673-.03-.757-.05-.713-.151.338l-.117 1.206h-4.02v-2.201c0-2.177.007-2.203.503-2.342.464-.129.469-.14.06-.16-.243-.01-.53-.177-.64-.37-.19-.335-.214-.334-.466.007-.23.31-.532.352-2.172.302l-1.906-.059-.118-1.105c-.105-.981-.122-1.014-.15-.29-.057 1.396-.266 1.52-2.448 1.454l-1.906-.059-.116-1.306zm3.128 2.936c.784.005 1.008.085 1.17.306.34.466.346 3.717.006 4.056-.17.17-.844.23-2.16.19l-1.913-.056v-4.42l1.907-.059c.404-.012.728-.019.99-.017zm4.621 0c.785.005 1.008.085 1.17.306.313.428.344 3.346.043 3.91-.192.358-.395.39-2.16.338l-1.949-.058v-4.42l1.906-.06c.405-.012.729-.018.99-.016zm-9.437.008c.736.009 1.201.072 1.337.185.202.167.281.731.281 2 0 .973-.056 1.914-.125 2.093-.105.274-.437.315-2.16.267l-2.035-.057v-4.42l1.88-.059c.302-.009.577-.012.822-.01zm-.625 4.78c.908-.009 1.823.072 2.002.25.332.333.327 3.813-.006 4.147-.17.17-.845.23-2.16.19l-1.913-.056-.058-1.98c-.038-1.287.024-2.078.175-2.26.152-.183 1.052-.282 1.96-.291zm-4.723.01c1.18 0 1.95.088 2.103.241.152.152.241.916.241 2.07s-.089 1.917-.24 2.07c-.154.152-.923.24-2.104.24-2.232 0-2.277-.045-2.277-2.31s.045-2.311 2.277-2.311zm9.395 0c1.551 0 1.804.05 1.985.389.272.507.269 3.342-.004 3.851-.192.359-.395.39-2.16.339L21.49 28.3l-.058-1.98c-.038-1.287.024-2.078.175-2.26.168-.202.734-.281 2.01-.281zm4.648.003c1.528-.003 1.778.046 1.96.386.271.507.268 3.342-.004 3.851-.192.359-.395.39-2.16.339l-1.95-.058-.057-2.094c-.042-1.54.011-2.136.201-2.257.143-.09 1.047-.165 2.01-.167zm4.377.004c.818-.01 1.658.025 1.893.115.26.1.317.489.317 2.177 0 1.13-.063 2.118-.14 2.196-.078.077-1.005.115-2.06.083l-1.919-.057-.057-2.093c-.043-1.54.01-2.137.2-2.258.15-.095.948-.152 1.766-.163zm-18.42 4.816c1.18 0 1.95.088 2.103.24.15.151.241.894.241 1.97s-.09 1.82-.24 1.97c-.154.152-.923.24-2.104.24-2.22 0-2.277-.055-2.277-2.21s.057-2.21 2.277-2.21zm10.164.025c.784.005 1.008.085 1.17.306.311.426.342 3.148.042 3.708-.192.359-.395.39-2.16.339l-1.949-.058v-4.22l1.907-.058c.404-.013.728-.02.99-.018zm4.621 0c.785.005 1.008.085 1.17.306.312.426.343 3.148.043 3.708-.192.359-.395.39-2.16.339l-1.949-.058v-4.22l1.906-.058c.405-.013.729-.02.99-.018zm7.645 0c.22.002.472.01.759.017l1.963.058.058 1.894c.032 1.042.012 2.014-.044 2.16-.075.196-.614.267-2.024.267-2.246 0-2.263-.017-2.263-2.21 0-1.946.01-2.198 1.551-2.186zm-17.082.007c.736.01 1.201.072 1.337.185.365.303.398 3.604.04 3.962-.275.275-3.522.334-3.936.07-.19-.12-.243-.697-.201-2.156l.058-1.993 1.88-.058c.302-.01.577-.013.822-.01zm11.163.068h4.019l.059 1.894c.032 1.042.01 2.017-.047 2.167-.081.21-.557.26-2.068.216l-1.963-.057v-2.11zm4.718 4.506l1.961.058 1.962.058.058 1.993c.042 1.459-.012 2.036-.201 2.157-.357.226-3.406.207-3.771-.024-.375-.237-.536-2.874-.225-3.681zm-21.229.015c1.18 0 1.95.089 2.103.241.15.15.241.894.241 1.97s-.09 1.819-.24 1.969c-.154.153-.923.241-2.104.241-2.22 0-2.277-.055-2.277-2.21s.057-2.21 2.277-2.21zm10.164.025c.784.005 1.008.085 1.17.307.31.423.343 3.145.046 3.7-.181.34-.432.389-1.96.386-.962-.002-1.867-.077-2.01-.167-.189-.12-.243-.699-.2-2.157l.057-1.993 1.907-.059c.404-.012.728-.019.99-.017zm4.621 0c.785.005 1.008.085 1.17.307.303.413.342 2.829.059 3.574-.19.5-.25.515-1.96.512-.97-.002-1.88-.077-2.022-.167-.19-.12-.243-.699-.2-2.157l.057-1.993 1.906-.059c.405-.012.729-.019.99-.017zm-9.437.008c.736.01 1.201.072 1.337.185.365.302.398 3.604.04 3.962-.358.358-3.659.324-3.962-.04-.15-.182-.212-.948-.175-2.16l.058-1.88 1.88-.057c.302-.01.577-.013.822-.01zm11.163.068h4.019l.058 1.993c.042 1.459-.011 2.036-.201 2.157-.142.09-.982.164-1.867.164-.884 0-1.723-.074-1.866-.164-.19-.12-.243-.698-.2-2.157zm-1.595 4.543c.818.003.94.094 1.102.397.338.633.175 3.561-.212 3.806-.367.233-3.415.253-3.774.025-.19-.12-.243-.698-.2-2.157l.057-1.992 1.948-.058c.455-.013.806-.022 1.079-.02zm7.21 0c.272 0 .623.007 1.078.021l1.948.058.058 1.992c.042 1.46-.012 2.037-.201 2.157-.359.228-3.407.208-3.774-.025-.387-.244-.55-3.173-.212-3.806.163-.303.284-.393 1.102-.397zm-16.778.01c.736.01 1.201.073 1.337.186.42.348.392 3.46-.034 3.887-.427.426-3.54.454-3.888.035-.15-.182-.212-.948-.175-2.16l.058-1.88 1.88-.057c.302-.01.577-.013.822-.01zm4.622 0c.736.01 1.201.073 1.337.186.42.348.392 3.46-.035 3.887-.426.426-3.539.454-3.887.035-.15-.182-.213-.948-.175-2.16l.057-1.88 1.88-.057c.303-.01.578-.013.823-.01zm6.541.069h4.019l.058 1.992c.042 1.46-.011 2.037-.201 2.157-.142.09-.982.165-1.867.165-.884 0-1.723-.074-1.866-.165-.19-.12-.243-.698-.2-2.157zm-1.956 4.547c1.554-.004 1.645.276 1.692 1.971l.037 1.319.114-1.608.113-1.608h4.019l.058 1.993c.042 1.46-.011 2.037-.201 2.157-.3.19-3.188.229-3.658.049-.175-.067-.319-.265-.319-.44 0-.25-.087-.224-.409.122-.358.384-.619.44-2.06.437-.907-.002-1.766-.077-1.909-.168-.19-.12-.243-.698-.2-2.157l.057-1.993 1.906-.058c.286-.009.538-.015.76-.016zm-4.585.006c.736.01 1.201.072 1.337.185.42.348.392 3.461-.035 3.888-.236.236-.73.315-1.959.312-.904-.002-1.76-.077-1.902-.167-.19-.12-.244-.698-.201-2.157l.057-1.993 1.88-.058c.303-.009.578-.013.823-.01zM56.198 60.29l-3.112 3.119 2.966 2.973 3.103-3.103zm4.948 4.42l-3.387 3.687 1.127 1.398h7.605zm7.956 7.497l-7.726.156L64.1 75.22l7.726-.156zm-2.792 5.425l2.792 2.813h8.239l-2.792-2.813zm13.316 5.225l-7.8.17c0 .226 4.396 4.32 4.96 4.62.241.128.467.226.502.217 1.153-.288 3.379-2.538 3.379-3.414-.025-.594-.713-1.126-1.04-1.593z"></path></g><!----><g data-v-423bf9ae="" id="07378f92-71d7-41cf-aef1-61425f8d11a4" fill="black" transform="matrix(0.4635219653248012,0,0,0.4635219653248012,26.833641835794396,205.0762469093008)"><path d="M10.95 7.63L10.95 7.63Q10.95 8.40 10.56 9.10Q10.18 9.80 9.53 10.32Q8.88 10.85 8.00 11.16Q7.13 11.47 6.15 11.47L6.15 11.47Q5.80 11.47 5.59 11.38Q5.39 11.28 5.14 11.02L5.14 11.02Q4.44 12.54 4.00 13.82Q3.56 15.11 3.30 16.31L3.30 16.31Q2.77 16.18 2.44 15.87Q2.10 15.55 1.82 15.08L1.82 15.08Q1.96 14.81 2.16 14.38Q2.35 13.94 2.63 13.31Q2.91 12.67 3.28 11.78Q3.65 10.89 4.16 9.70L4.16 9.70Q4.38 9.16 4.55 8.75Q4.72 8.34 4.84 7.99Q4.97 7.63 5.08 7.28Q5.18 6.93 5.29 6.51L5.29 6.51Q4.63 6.72 4.08 7Q3.53 7.28 3.16 7.59L3.16 7.59Q3.04 7.50 2.91 7.34Q2.77 7.17 2.66 6.96Q2.55 6.76 2.46 6.55Q2.38 6.34 2.37 6.17L2.37 6.17Q2.77 5.89 3.37 5.66Q3.98 5.42 4.66 5.24Q5.35 5.07 6.08 4.97Q6.82 4.87 7.49 4.87L7.49 4.87Q8.29 4.87 8.93 5.07Q9.58 5.28 10.02 5.64Q10.47 6.01 10.71 6.51Q10.95 7.01 10.95 7.63ZM8.46 5.95L8.46 5.95Q7.92 5.95 7.36 6.03L7.36 6.03L7.53 6.29Q7.39 6.47 7.18 6.83Q6.97 7.20 6.72 7.71Q6.47 8.22 6.17 8.85Q5.87 9.48 5.53 10.18L5.53 10.18Q6.62 10.18 7.52 9.97Q8.41 9.77 9.05 9.41Q9.69 9.06 10.04 8.58Q10.40 8.11 10.40 7.56L10.40 7.56Q10.40 6.83 9.91 6.39Q9.42 5.95 8.46 5.95ZM22.61 14.38L22.61 14.38Q22.96 14.98 22.96 15.54L22.96 15.54Q22.96 15.67 22.94 15.77Q22.92 15.88 22.89 15.99L22.89 15.99Q22.65 15.96 22.39 15.95Q22.13 15.93 21.85 15.93L21.85 15.93Q21.52 15.93 21.18 15.95Q20.83 15.97 20.41 16.02Q19.99 16.06 19.47 16.13Q18.96 16.20 18.27 16.31L18.27 16.31Q17.95 16.20 17.63 15.87Q17.30 15.54 17.02 15.08L17.02 15.08Q17.16 14.77 17.37 14.31Q17.58 13.86 17.86 13.21Q18.14 12.56 18.49 11.68Q18.83 10.81 19.22 9.66L19.22 9.66Q19.47 8.90 19.66 8.33Q19.84 7.76 19.98 7.22Q20.13 6.68 20.27 6.09Q20.41 5.50 20.58 4.73L20.58 4.73Q21.14 4.84 21.55 5.14Q21.97 5.45 22.34 6.01L22.34 6.01Q22.23 6.19 22.05 6.59Q21.87 7 21.62 7.58Q21.38 8.16 21.08 8.90Q20.79 9.63 20.47 10.47L20.47 10.47Q20.16 11.30 19.87 12.03Q19.57 12.75 19.34 13.34Q19.11 13.93 18.97 14.35Q18.83 14.77 18.83 14.98L18.83 14.98Q19.05 14.97 19.24 14.95Q19.42 14.94 19.61 14.90Q19.81 14.87 20.04 14.82Q20.27 14.77 20.59 14.69L20.59 14.69Q20.87 14.62 21.11 14.57Q21.35 14.52 21.58 14.48Q21.81 14.45 22.06 14.43Q22.30 14.41 22.61 14.38ZM32.03 16.24L32.03 16.24Q31.36 16.04 31.10 15.85Q30.84 15.65 30.84 15.36L30.84 15.36Q30.84 15.13 30.97 14.73Q31.09 14.32 31.34 13.77Q31.58 13.22 31.93 12.54Q32.27 11.87 32.70 11.10L32.70 11.10Q32.34 11.09 32.05 11.08Q31.77 11.07 31.58 11.07L31.58 11.07Q31.67 10.86 32.06 10.71Q32.45 10.56 33.10 10.44L33.10 10.44Q33.64 9.53 34.27 8.71Q34.89 7.88 35.52 7.19Q36.15 6.50 36.78 5.97Q37.41 5.45 37.98 5.14L37.98 5.14Q38.00 5.04 38.00 4.97Q38.01 4.90 38.01 4.87L38.01 4.87Q38.21 4.87 38.53 4.97Q38.86 5.07 39.18 5.21Q39.49 5.35 39.74 5.49Q39.98 5.64 40.01 5.74L40.01 5.74Q39.55 6.55 39.10 8.17Q38.65 9.79 38.36 12.04L38.36 12.04Q38.29 12.60 38.24 13.31Q38.19 14.03 38.19 14.91L38.19 14.91Q38.19 15.22 38.19 15.54Q38.19 15.86 38.22 16.21L38.22 16.21Q38.19 16.23 38.16 16.23Q38.14 16.23 38.05 16.23L38.05 16.23Q37.86 16.23 37.60 16.16Q37.34 16.10 37.09 16.01Q36.85 15.92 36.67 15.81Q36.50 15.69 36.46 15.61L36.46 15.61Q36.44 15.43 36.44 15.25Q36.44 15.08 36.44 14.88L36.44 14.88Q36.44 14.01 36.51 13.12Q36.57 12.22 36.72 11.27L36.72 11.27Q36.53 11.26 36.20 11.23Q35.88 11.21 35.48 11.20Q35.08 11.19 34.63 11.16Q34.17 11.14 33.74 11.13L33.74 11.13Q33.40 11.76 33.11 12.38Q32.82 13.01 32.61 13.64L32.61 13.64Q32.37 14.31 32.22 14.98Q32.07 15.65 32.03 16.24ZM37.44 7.83L37.44 7.83Q37.49 7.63 37.57 7.29Q37.65 6.94 37.72 6.57L37.72 6.57Q37.37 6.69 36.94 7.03Q36.51 7.36 36.06 7.86Q35.60 8.36 35.13 8.98Q34.66 9.60 34.23 10.30L34.23 10.30Q35.41 10.21 36.90 10.18L36.90 10.18Q37.02 9.59 37.15 9.01Q37.28 8.43 37.44 7.83ZM51.58 10.35L51.58 10.35Q52.63 9.20 53.46 7.91Q54.29 6.62 55.01 5.01L55.01 5.01Q55.37 5.05 55.71 5.21Q56.04 5.36 56.24 5.56L56.24 5.56Q55.47 6.48 54.84 7.24Q54.22 7.99 53.70 8.66Q53.19 9.32 52.75 9.93Q52.30 10.54 51.88 11.16L51.88 11.16Q51.67 11.87 51.49 12.60Q51.31 13.33 51.17 13.99Q51.03 14.66 50.95 15.22Q50.88 15.79 50.88 16.20L50.88 16.20Q50.72 16.20 50.39 16.14Q50.05 16.07 49.70 15.99Q49.35 15.90 49.06 15.82Q48.78 15.74 48.72 15.68L48.72 15.68Q48.94 15.30 49.16 14.75Q49.38 14.20 49.59 13.59Q49.80 12.98 49.99 12.36Q50.19 11.73 50.36 11.20L50.36 11.20Q50.01 10.11 49.68 9.15Q49.35 8.19 49.04 7.41Q48.73 6.64 48.45 6.08Q48.17 5.52 47.92 5.22L47.92 5.22Q48.06 5.17 48.35 5.11Q48.64 5.05 48.98 5.00Q49.32 4.94 49.68 4.91Q50.04 4.87 50.32 4.86L50.32 4.86Q50.32 5.21 50.38 5.71Q50.44 6.22 50.55 6.79Q50.65 7.36 50.79 7.95Q50.93 8.54 51.07 9.03Q51.21 9.52 51.34 9.88Q51.48 10.23 51.58 10.35ZM61.57 15.71L61.57 15.71Q61.35 15.68 61.10 15.52Q60.86 15.36 60.79 15.16L60.79 15.16Q60.79 14.99 60.84 14.73Q60.89 14.46 60.96 14.19Q61.03 13.92 61.10 13.67Q61.17 13.43 61.19 13.30L61.19 13.30Q61.36 13.30 61.62 13.38Q61.88 13.47 62.15 13.62Q62.43 13.76 62.67 13.95Q62.92 14.14 63.04 14.34L63.04 14.34Q62.92 14.62 62.72 14.87Q62.52 15.12 62.31 15.31Q62.09 15.50 61.89 15.60Q61.70 15.71 61.57 15.71ZM82.52 12.43L82.52 12.43Q82.52 11.45 82.75 10.51Q82.98 9.56 83.40 8.71Q83.82 7.87 84.40 7.16Q84.98 6.45 85.67 5.94Q86.37 5.42 87.15 5.13Q87.93 4.84 88.76 4.84L88.76 4.84Q89.73 4.84 90.26 5.25Q90.80 5.66 90.80 6.38L90.80 6.38Q90.80 6.66 90.73 6.96Q90.65 7.25 90.50 7.54Q90.36 7.83 90.16 8.09Q89.96 8.36 89.73 8.55L89.73 8.55Q89.36 8.50 89.10 8.22Q88.83 7.95 88.76 7.59L88.76 7.59Q89.25 7.18 89.54 6.74Q89.82 6.30 89.82 5.94L89.82 5.94Q89.82 5.32 89.05 5.32L89.05 5.32Q88.73 5.32 88.39 5.45Q88.05 5.59 87.70 5.82Q87.35 6.06 87.02 6.40Q86.69 6.73 86.41 7.14L86.41 7.14Q84.46 9.94 84.46 12.87L84.46 12.87Q84.46 13.90 84.78 14.53Q85.11 15.16 85.64 15.27L85.64 15.27Q86.24 15.13 87.16 14.50Q88.09 13.87 89.18 12.87L89.18 12.87Q89.32 13.01 89.35 13.16L89.35 13.16Q88.94 13.69 88.51 14.18Q88.07 14.67 87.65 15.08Q87.22 15.48 86.81 15.79Q86.39 16.10 86.04 16.27L86.04 16.27Q84.31 16.24 83.41 15.27Q82.52 14.31 82.52 12.43ZM103.85 4.98L103.85 4.98Q104.12 5.10 104.40 5.27Q104.68 5.45 104.92 5.63Q105.15 5.81 105.31 5.98Q105.48 6.16 105.49 6.27L105.49 6.27Q105.25 6.22 105.01 6.20Q104.78 6.17 104.58 6.17L104.58 6.17Q103.95 6.17 103.33 6.48Q102.70 6.79 102.14 7.32Q101.58 7.85 101.11 8.57Q100.63 9.28 100.29 10.09Q99.95 10.91 99.75 11.77Q99.55 12.64 99.55 13.48L99.55 13.48Q99.55 14.57 99.92 15.11Q100.28 15.64 100.98 15.64L100.98 15.64Q101.32 15.64 101.71 15.51Q102.10 15.37 102.51 15.13Q102.91 14.90 103.31 14.56Q103.70 14.22 104.03 13.82L104.03 13.82Q104.52 13.23 104.92 12.48Q105.31 11.73 105.58 10.89Q105.85 10.05 106.00 9.16Q106.15 8.27 106.15 7.42L106.15 7.42Q106.15 7.08 106.13 6.85Q106.12 6.62 106.10 6.46Q106.08 6.30 106.06 6.20Q106.05 6.10 106.04 6.03L106.04 6.03Q106.20 6.12 106.41 6.24Q106.61 6.36 106.78 6.59Q106.96 6.82 107.08 7.20Q107.20 7.57 107.20 8.18L107.20 8.18Q107.20 9.16 106.97 10.10Q106.74 11.05 106.32 11.90Q105.91 12.75 105.35 13.50Q104.79 14.24 104.15 14.80L104.15 14.80Q103.31 15.54 102.35 15.95Q101.40 16.35 100.52 16.35L100.52 16.35Q99.23 16.35 98.55 15.53Q97.87 14.71 97.87 13.12L97.87 13.12Q97.87 12.26 98.06 11.31Q98.25 10.36 98.59 9.44Q98.94 8.51 99.41 7.68Q99.89 6.85 100.46 6.21Q101.02 5.57 101.67 5.19Q102.33 4.82 103.01 4.82L103.01 4.82Q103.24 4.82 103.43 4.85Q103.63 4.89 103.85 4.98ZM115.77 16.24L115.77 16.24Q114.97 16.00 114.69 15.79Q114.41 15.57 114.41 15.19L114.41 15.19Q114.41 14.77 114.60 14.01Q114.80 13.24 115.11 12.31Q115.43 11.37 115.84 10.35Q116.24 9.32 116.66 8.39Q117.08 7.45 117.48 6.67Q117.88 5.89 118.19 5.46L118.19 5.46L118.09 4.87Q118.29 4.87 118.64 4.97Q118.99 5.07 119.34 5.21Q119.70 5.35 119.97 5.49Q120.25 5.64 120.27 5.74L120.27 5.74Q120.20 6.08 120.16 6.76Q120.12 7.43 120.12 8.20L120.12 8.20Q120.12 9.73 120.24 11.19Q120.36 12.66 120.79 14.17L120.79 14.17Q121.02 13.05 121.27 11.94Q121.53 10.82 121.81 9.81Q122.09 8.79 122.37 7.92Q122.65 7.06 122.91 6.40Q123.17 5.75 123.40 5.38Q123.62 5.01 123.80 4.98L123.80 4.98Q123.96 5.01 124.14 5.10Q124.32 5.19 124.49 5.32Q124.66 5.45 124.80 5.60Q124.94 5.75 125.02 5.91L125.02 5.91Q124.57 6.09 124.13 6.76Q123.69 7.43 123.29 8.39Q122.89 9.35 122.55 10.47Q122.21 11.59 121.95 12.68Q121.69 13.76 121.54 14.69Q121.39 15.61 121.38 16.17L121.38 16.17Q121.38 16.20 121.39 16.21L121.39 16.21Q121.35 16.23 121.30 16.23Q121.25 16.23 121.21 16.23L121.21 16.23Q120.57 16.23 120.07 16.07Q119.57 15.90 119.42 15.61L119.42 15.61Q119.13 14.43 118.93 13.34Q118.73 12.25 118.60 11.16Q118.47 10.07 118.39 8.95Q118.31 7.84 118.27 6.62L118.27 6.62Q118.01 7.04 117.71 7.72Q117.42 8.40 117.14 9.21Q116.86 10.02 116.60 10.92Q116.34 11.82 116.14 12.67Q115.95 13.52 115.84 14.29Q115.72 15.05 115.72 15.61L115.72 15.61Q115.72 15.90 115.73 16.03Q115.74 16.16 115.77 16.24ZM132.33 16.24L132.33 16.24Q131.53 16.00 131.25 15.79Q130.97 15.57 130.97 15.19L130.97 15.19Q130.97 14.77 131.17 14.01Q131.36 13.24 131.68 12.31Q131.99 11.37 132.40 10.35Q132.80 9.32 133.22 8.39Q133.64 7.45 134.04 6.67Q134.44 5.89 134.75 5.46L134.75 5.46L134.65 4.87Q134.85 4.87 135.20 4.97Q135.55 5.07 135.91 5.21Q136.26 5.35 136.53 5.49Q136.81 5.64 136.84 5.74L136.84 5.74Q136.77 6.08 136.72 6.76Q136.68 7.43 136.68 8.20L136.68 8.20Q136.68 9.73 136.80 11.19Q136.92 12.66 137.35 14.17L137.35 14.17Q137.58 13.05 137.84 11.94Q138.10 10.82 138.38 9.81Q138.66 8.79 138.94 7.92Q139.22 7.06 139.47 6.40Q139.73 5.75 139.96 5.38Q140.18 5.01 140.36 4.98L140.36 4.98Q140.52 5.01 140.70 5.10Q140.88 5.19 141.05 5.32Q141.22 5.45 141.36 5.60Q141.50 5.75 141.58 5.91L141.58 5.91Q141.13 6.09 140.69 6.76Q140.25 7.43 139.85 8.39Q139.45 9.35 139.11 10.47Q138.77 11.59 138.51 12.68Q138.25 13.76 138.10 14.69Q137.96 15.61 137.94 16.17L137.94 16.17Q137.94 16.20 137.96 16.21L137.96 16.21Q137.91 16.23 137.87 16.23Q137.82 16.23 137.77 16.23L137.77 16.23Q137.13 16.23 136.63 16.07Q136.14 15.90 135.98 15.61L135.98 15.61Q135.69 14.43 135.49 13.34Q135.30 12.25 135.16 11.16Q135.03 10.07 134.95 8.95Q134.88 7.84 134.83 6.62L134.83 6.62Q134.57 7.04 134.27 7.72Q133.98 8.40 133.70 9.21Q133.42 10.02 133.16 10.92Q132.90 11.82 132.71 12.67Q132.51 13.52 132.40 14.29Q132.29 15.05 132.29 15.61L132.29 15.61Q132.29 15.90 132.29 16.03Q132.30 16.16 132.33 16.24ZM153.43 9.21L153.43 9.21Q153.89 9.21 154.15 9.46Q154.41 9.72 154.41 10.16L154.41 10.16Q154.41 10.28 154.39 10.39Q154.36 10.51 154.34 10.60L154.34 10.60Q154.15 10.57 153.93 10.55Q153.71 10.53 153.40 10.53L153.40 10.53Q152.80 10.53 152.18 10.63Q151.56 10.74 151.00 10.81L151.00 10.81Q150.68 11.55 150.42 12.24Q150.15 12.94 149.96 13.51Q149.77 14.08 149.67 14.50Q149.56 14.92 149.55 15.13L149.55 15.13Q150.68 14.90 151.84 14.73Q152.99 14.56 154.27 14.48L154.27 14.48Q154.42 14.71 154.53 14.99Q154.63 15.27 154.63 15.60L154.63 15.60Q154.63 15.68 154.63 15.78Q154.63 15.88 154.60 15.97L154.60 15.97Q154.21 15.96 153.78 15.95Q153.34 15.95 152.64 15.95L152.64 15.95Q152.18 15.95 151.77 15.97Q151.35 15.99 150.93 16.03Q150.51 16.07 150.05 16.14Q149.58 16.21 148.99 16.31L148.99 16.31Q148.34 16.06 147.74 15.08L147.74 15.08Q147.98 14.57 148.41 13.54Q148.83 12.52 149.49 10.79L149.49 10.79Q148.86 10.60 148.67 10.09L148.67 10.09Q148.74 10.02 149.07 9.92Q149.41 9.81 149.90 9.70L149.90 9.70Q150.11 9.16 150.26 8.75Q150.40 8.34 150.51 7.99Q150.63 7.63 150.72 7.29Q150.81 6.94 150.89 6.54L150.89 6.54Q150.40 6.51 150.12 6.27Q149.84 6.02 149.84 5.63L149.84 5.63Q149.84 5.52 149.88 5.36Q149.91 5.21 149.95 5.10L149.95 5.10Q150.23 5.14 150.49 5.15Q150.75 5.17 151.17 5.17L151.17 5.17Q152.05 5.17 152.82 5.12Q153.59 5.07 154.22 5.01Q154.84 4.96 155.29 4.91Q155.74 4.86 155.97 4.86L155.97 4.86Q156.30 4.86 156.55 5.19Q156.80 5.53 156.93 6.15L156.93 6.15Q156.49 6.10 156.22 6.09Q155.95 6.08 155.74 6.08L155.74 6.08Q154.97 6.08 154.33 6.15Q153.69 6.23 153.10 6.31L153.10 6.31Q153.02 6.44 152.92 6.64Q152.81 6.83 152.64 7.18Q152.47 7.53 152.23 8.06Q151.98 8.60 151.63 9.39L151.63 9.39Q152.17 9.31 152.64 9.26Q153.10 9.21 153.43 9.21ZM163.60 12.43L163.60 12.43Q163.60 11.45 163.84 10.51Q164.07 9.56 164.49 8.71Q164.91 7.87 165.49 7.16Q166.07 6.45 166.76 5.94Q167.45 5.42 168.24 5.13Q169.02 4.84 169.85 4.84L169.85 4.84Q170.81 4.84 171.35 5.25Q171.89 5.66 171.89 6.38L171.89 6.38Q171.89 6.66 171.82 6.96Q171.74 7.25 171.59 7.54Q171.44 7.83 171.25 8.09Q171.05 8.36 170.81 8.55L170.81 8.55Q170.45 8.50 170.18 8.22Q169.92 7.95 169.85 7.59L169.85 7.59Q170.34 7.18 170.63 6.74Q170.91 6.30 170.91 5.94L170.91 5.94Q170.91 5.32 170.14 5.32L170.14 5.32Q169.82 5.32 169.48 5.45Q169.13 5.59 168.78 5.82Q168.43 6.06 168.11 6.40Q167.78 6.73 167.50 7.14L167.50 7.14Q165.55 9.94 165.55 12.87L165.55 12.87Q165.55 13.90 165.87 14.53Q166.19 15.16 166.73 15.27L166.73 15.27Q167.33 15.13 168.25 14.50Q169.18 13.87 170.27 12.87L170.27 12.87Q170.41 13.01 170.44 13.16L170.44 13.16Q170.03 13.69 169.60 14.18Q169.16 14.67 168.74 15.08Q168.31 15.48 167.90 15.79Q167.48 16.10 167.13 16.27L167.13 16.27Q165.40 16.24 164.50 15.27Q163.60 14.31 163.60 12.43ZM181.09 6.69L181.09 6.69Q180.53 6.69 180.23 6.38Q179.93 6.06 179.93 5.61L179.93 5.61Q179.93 5.50 179.96 5.35Q180.00 5.19 180.05 5.08L180.05 5.08Q180.24 5.17 180.59 5.20Q180.95 5.24 181.43 5.24L181.43 5.24Q182.14 5.24 183.04 5.17Q183.95 5.11 184.77 5.04Q185.60 4.97 186.23 4.91Q186.86 4.84 187.04 4.84L187.04 4.84Q187.56 4.84 187.79 5.23Q188.02 5.61 188.13 6.26L188.13 6.26Q187.77 6.23 187.41 6.21Q187.05 6.19 186.80 6.19L186.80 6.19Q186.35 6.19 185.90 6.22Q185.44 6.24 184.98 6.30L184.98 6.30Q184.79 6.71 184.55 7.26Q184.31 7.81 184.08 8.41Q183.85 9.02 183.64 9.61Q183.43 10.21 183.27 10.68L183.27 10.68Q182.97 11.61 182.74 12.39Q182.50 13.17 182.33 13.85Q182.15 14.53 182.03 15.15Q181.90 15.76 181.80 16.35L181.80 16.35Q180.87 16.21 180.24 15.18L180.24 15.18Q180.35 14.74 180.51 14.23Q180.67 13.72 180.89 13.07Q181.10 12.42 181.40 11.59Q181.69 10.77 182.07 9.72L182.07 9.72Q182.21 9.32 182.36 8.90Q182.52 8.47 182.67 8.05Q182.81 7.63 182.93 7.24Q183.05 6.85 183.13 6.52L183.13 6.52Q182.55 6.59 182.02 6.64Q181.50 6.69 181.09 6.69ZM193.14 15.71L193.14 15.71Q192.92 15.68 192.68 15.52Q192.43 15.36 192.36 15.16L192.36 15.16Q192.36 14.99 192.41 14.73Q192.46 14.46 192.53 14.19Q192.60 13.92 192.67 13.67Q192.74 13.43 192.77 13.30L192.77 13.30Q192.93 13.30 193.19 13.38Q193.45 13.47 193.73 13.62Q194.00 13.76 194.24 13.95Q194.49 14.14 194.61 14.34L194.61 14.34Q194.49 14.62 194.29 14.87Q194.10 15.12 193.88 15.31Q193.66 15.50 193.47 15.60Q193.27 15.71 193.14 15.71ZM214.09 12.43L214.09 12.43Q214.09 11.45 214.32 10.51Q214.55 9.56 214.97 8.71Q215.39 7.87 215.97 7.16Q216.55 6.45 217.25 5.94Q217.94 5.42 218.72 5.13Q219.51 4.84 220.33 4.84L220.33 4.84Q221.30 4.84 221.84 5.25Q222.38 5.66 222.38 6.38L222.38 6.38Q222.38 6.66 222.30 6.96Q222.22 7.25 222.08 7.54Q221.93 7.83 221.73 8.09Q221.54 8.36 221.30 8.55L221.30 8.55Q220.93 8.50 220.67 8.22Q220.40 7.95 220.33 7.59L220.33 7.59Q220.82 7.18 221.11 6.74Q221.40 6.30 221.40 5.94L221.40 5.94Q221.40 5.32 220.63 5.32L220.63 5.32Q220.30 5.32 219.96 5.45Q219.62 5.59 219.27 5.82Q218.92 6.06 218.59 6.40Q218.26 6.73 217.98 7.14L217.98 7.14Q216.03 9.94 216.03 12.87L216.03 12.87Q216.03 13.90 216.36 14.53Q216.68 15.16 217.21 15.27L217.21 15.27Q217.81 15.13 218.74 14.50Q219.66 13.87 220.75 12.87L220.75 12.87Q220.89 13.01 220.92 13.16L220.92 13.16Q220.51 13.69 220.08 14.18Q219.65 14.67 219.22 15.08Q218.79 15.48 218.38 15.79Q217.97 16.10 217.62 16.27L217.62 16.27Q215.88 16.24 214.98 15.27Q214.09 14.31 214.09 12.43ZM235.42 4.98L235.42 4.98Q235.69 5.10 235.97 5.27Q236.25 5.45 236.49 5.63Q236.73 5.81 236.89 5.98Q237.05 6.16 237.06 6.27L237.06 6.27Q236.82 6.22 236.59 6.20Q236.35 6.17 236.15 6.17L236.15 6.17Q235.52 6.17 234.90 6.48Q234.28 6.79 233.72 7.32Q233.16 7.85 232.68 8.57Q232.20 9.28 231.86 10.09Q231.52 10.91 231.32 11.77Q231.13 12.64 231.13 13.48L231.13 13.48Q231.13 14.57 231.49 15.11Q231.85 15.64 232.55 15.64L232.55 15.64Q232.89 15.64 233.28 15.51Q233.67 15.37 234.08 15.13Q234.49 14.90 234.88 14.56Q235.27 14.22 235.61 13.82L235.61 13.82Q236.10 13.23 236.49 12.48Q236.88 11.73 237.15 10.89Q237.43 10.05 237.57 9.16Q237.72 8.27 237.72 7.42L237.72 7.42Q237.72 7.08 237.71 6.85Q237.69 6.62 237.67 6.46Q237.65 6.30 237.64 6.20Q237.62 6.10 237.61 6.03L237.61 6.03Q237.78 6.12 237.98 6.24Q238.18 6.36 238.36 6.59Q238.53 6.82 238.65 7.20Q238.77 7.57 238.77 8.18L238.77 8.18Q238.77 9.16 238.54 10.10Q238.31 11.05 237.90 11.90Q237.48 12.75 236.92 13.50Q236.36 14.24 235.72 14.80L235.72 14.80Q234.88 15.54 233.93 15.95Q232.97 16.35 232.09 16.35L232.09 16.35Q230.80 16.35 230.13 15.53Q229.45 14.71 229.45 13.12L229.45 13.12Q229.45 12.26 229.64 11.31Q229.82 10.36 230.17 9.44Q230.51 8.51 230.99 7.68Q231.46 6.85 232.03 6.21Q232.60 5.57 233.25 5.19Q233.90 4.82 234.58 4.82L234.58 4.82Q234.81 4.82 235.00 4.85Q235.20 4.89 235.42 4.98ZM251.87 16.21L251.87 16.21Q251.85 16.23 251.82 16.23Q251.79 16.23 251.71 16.23L251.71 16.23Q251.51 16.23 251.25 16.16Q250.99 16.10 250.75 16.01Q250.50 15.92 250.33 15.81Q250.15 15.69 250.11 15.61L250.11 15.61Q250.10 15.41 250.10 15.20Q250.10 14.99 250.10 14.80L250.10 14.80Q250.10 13.23 250.33 11.52Q250.56 9.81 251.09 7.83L251.09 7.83Q251.15 7.63 251.21 7.33Q251.27 7.03 251.34 6.68L251.34 6.68Q251.01 6.94 250.54 7.53Q250.08 8.11 249.57 8.90Q249.06 9.69 248.55 10.63Q248.04 11.58 247.62 12.55Q247.20 13.52 246.90 14.48Q246.60 15.43 246.53 16.24L246.53 16.24Q245.85 16.04 245.59 15.85Q245.34 15.65 245.34 15.37L245.34 15.37Q245.34 15.12 245.49 14.66Q245.64 14.20 245.92 13.57Q246.20 12.94 246.61 12.16Q247.02 11.38 247.51 10.49L247.51 10.49Q248.07 9.46 248.60 8.57Q249.14 7.67 249.66 6.94Q250.18 6.22 250.68 5.68Q251.17 5.15 251.66 4.87L251.66 4.87Q251.86 4.87 252.19 4.97Q252.52 5.07 252.83 5.21Q253.15 5.35 253.39 5.49Q253.64 5.64 253.67 5.74L253.67 5.74Q253.47 6.13 253.20 6.92Q252.94 7.70 252.66 8.69Q252.39 9.69 252.15 10.80Q251.90 11.91 251.76 12.94L251.76 12.94Q252.08 12.17 252.51 11.33Q252.94 10.50 253.41 9.68Q253.89 8.86 254.39 8.09Q254.88 7.32 255.36 6.69Q255.84 6.05 256.25 5.57Q256.66 5.10 256.98 4.87L256.98 4.87Q257.18 4.87 257.51 4.97Q257.84 5.07 258.15 5.21Q258.47 5.35 258.71 5.49Q258.96 5.64 258.99 5.74L258.99 5.74Q258.54 6.54 258.20 7.69Q257.87 8.83 257.63 10.09Q257.40 11.35 257.29 12.59Q257.17 13.83 257.17 14.81L257.17 14.81Q257.17 15.13 257.17 15.48Q257.17 15.83 257.19 16.21L257.19 16.21Q257.00 16.21 256.73 16.16Q256.45 16.11 256.19 16.03Q255.93 15.95 255.72 15.84Q255.51 15.74 255.43 15.61L255.43 15.61Q255.42 15.41 255.42 15.20Q255.42 14.99 255.42 14.80L255.42 14.80Q255.42 13.23 255.65 11.52Q255.88 9.81 256.41 7.83L256.41 7.83Q256.47 7.63 256.54 7.29Q256.61 6.96 256.68 6.59L256.68 6.59Q256.28 6.79 255.79 7.34Q255.29 7.90 254.78 8.69Q254.27 9.48 253.77 10.44Q253.27 11.41 252.88 12.41Q252.48 13.41 252.20 14.40Q251.93 15.39 251.87 16.21ZM275.81 7.63L275.81 7.63Q275.81 8.40 275.43 9.10Q275.04 9.80 274.39 10.32Q273.74 10.85 272.87 11.16Q271.99 11.47 271.01 11.47L271.01 11.47Q270.66 11.47 270.46 11.38Q270.26 11.28 270.00 11.02L270.00 11.02Q269.30 12.54 268.86 13.82Q268.42 15.11 268.17 16.31L268.17 16.31Q267.64 16.18 267.30 15.87Q266.97 15.55 266.69 15.08L266.69 15.08Q266.83 14.81 267.02 14.38Q267.22 13.94 267.50 13.31Q267.78 12.67 268.15 11.78Q268.52 10.89 269.02 9.70L269.02 9.70Q269.25 9.16 269.42 8.75Q269.58 8.34 269.71 7.99Q269.84 7.63 269.94 7.28Q270.05 6.93 270.16 6.51L270.16 6.51Q269.50 6.72 268.95 7Q268.39 7.28 268.03 7.59L268.03 7.59Q267.90 7.50 267.77 7.34Q267.64 7.17 267.53 6.96Q267.41 6.76 267.33 6.55Q267.25 6.34 267.23 6.17L267.23 6.17Q267.64 5.89 268.24 5.66Q268.84 5.42 269.53 5.24Q270.21 5.07 270.95 4.97Q271.68 4.87 272.36 4.87L272.36 4.87Q273.15 4.87 273.80 5.07Q274.44 5.28 274.89 5.64Q275.34 6.01 275.58 6.51Q275.81 7.01 275.81 7.63ZM273.32 5.95L273.32 5.95Q272.79 5.95 272.23 6.03L272.23 6.03L272.40 6.29Q272.26 6.47 272.05 6.83Q271.84 7.20 271.59 7.71Q271.33 8.22 271.03 8.85Q270.73 9.48 270.40 10.18L270.40 10.18Q271.49 10.18 272.38 9.97Q273.28 9.77 273.92 9.41Q274.55 9.06 274.91 8.58Q275.27 8.11 275.27 7.56L275.27 7.56Q275.27 6.83 274.78 6.39Q274.29 5.95 273.32 5.95ZM288.05 9.21L288.05 9.21Q288.51 9.21 288.77 9.46Q289.03 9.72 289.03 10.16L289.03 10.16Q289.03 10.28 289.01 10.39Q288.99 10.51 288.96 10.60L288.96 10.60Q288.78 10.57 288.55 10.55Q288.33 10.53 288.02 10.53L288.02 10.53Q287.42 10.53 286.80 10.63Q286.19 10.74 285.63 10.81L285.63 10.81Q285.31 11.55 285.04 12.24Q284.77 12.94 284.58 13.51Q284.40 14.08 284.29 14.50Q284.19 14.92 284.17 15.13L284.17 15.13Q285.31 14.90 286.46 14.73Q287.62 14.56 288.89 14.48L288.89 14.48Q289.04 14.71 289.15 14.99Q289.25 15.27 289.25 15.60L289.25 15.60Q289.25 15.68 289.25 15.78Q289.25 15.88 289.23 15.97L289.23 15.97Q288.83 15.96 288.40 15.95Q287.97 15.95 287.27 15.95L287.27 15.95Q286.80 15.95 286.39 15.97Q285.98 15.99 285.56 16.03Q285.14 16.07 284.67 16.14Q284.20 16.21 283.61 16.31L283.61 16.31Q282.97 16.06 282.37 15.08L282.37 15.08Q282.60 14.57 283.03 13.54Q283.46 12.52 284.12 10.79L284.12 10.79Q283.49 10.60 283.29 10.09L283.29 10.09Q283.36 10.02 283.70 9.92Q284.03 9.81 284.52 9.70L284.52 9.70Q284.73 9.16 284.88 8.75Q285.03 8.34 285.14 7.99Q285.25 7.63 285.34 7.29Q285.43 6.94 285.52 6.54L285.52 6.54Q285.03 6.51 284.75 6.27Q284.47 6.02 284.47 5.63L284.47 5.63Q284.47 5.52 284.50 5.36Q284.54 5.21 284.58 5.10L284.58 5.10Q284.86 5.14 285.12 5.15Q285.38 5.17 285.80 5.17L285.80 5.17Q286.68 5.17 287.45 5.12Q288.22 5.07 288.84 5.01Q289.46 4.96 289.91 4.91Q290.36 4.86 290.60 4.86L290.60 4.86Q290.92 4.86 291.17 5.19Q291.42 5.53 291.55 6.15L291.55 6.15Q291.12 6.10 290.84 6.09Q290.57 6.08 290.36 6.08L290.36 6.08Q289.59 6.08 288.95 6.15Q288.32 6.23 287.73 6.31L287.73 6.31Q287.64 6.44 287.54 6.64Q287.43 6.83 287.27 7.18Q287.10 7.53 286.85 8.06Q286.61 8.60 286.26 9.39L286.26 9.39Q286.79 9.31 287.26 9.26Q287.73 9.21 288.05 9.21ZM300.57 6.69L300.57 6.69Q300.01 6.69 299.70 6.38Q299.40 6.06 299.40 5.61L299.40 5.61Q299.40 5.50 299.44 5.35Q299.47 5.19 299.53 5.08L299.53 5.08Q299.71 5.17 300.07 5.20Q300.43 5.24 300.90 5.24L300.90 5.24Q301.62 5.24 302.52 5.17Q303.42 5.11 304.25 5.04Q305.07 4.97 305.70 4.91Q306.33 4.84 306.52 4.84L306.52 4.84Q307.03 4.84 307.26 5.23Q307.50 5.61 307.61 6.26L307.61 6.26Q307.24 6.23 306.89 6.21Q306.53 6.19 306.28 6.19L306.28 6.19Q305.83 6.19 305.38 6.22Q304.92 6.24 304.46 6.30L304.46 6.30Q304.26 6.71 304.02 7.26Q303.79 7.81 303.56 8.41Q303.32 9.02 303.11 9.61Q302.90 10.21 302.75 10.68L302.75 10.68Q302.44 11.61 302.21 12.39Q301.98 13.17 301.81 13.85Q301.63 14.53 301.50 15.15Q301.38 15.76 301.28 16.35L301.28 16.35Q300.34 16.21 299.71 15.18L299.71 15.18Q299.82 14.74 299.99 14.23Q300.15 13.72 300.36 13.07Q300.58 12.42 300.87 11.59Q301.17 10.77 301.55 9.72L301.55 9.72Q301.69 9.32 301.84 8.90Q301.99 8.47 302.14 8.05Q302.29 7.63 302.41 7.24Q302.53 6.85 302.61 6.52L302.61 6.52Q302.02 6.59 301.50 6.64Q300.97 6.69 300.57 6.69ZM318.81 9.21L318.81 9.21Q319.27 9.21 319.53 9.46Q319.79 9.72 319.79 10.16L319.79 10.16Q319.79 10.28 319.77 10.39Q319.75 10.51 319.72 10.60L319.72 10.60Q319.54 10.57 319.31 10.55Q319.09 10.53 318.78 10.53L318.78 10.53Q318.18 10.53 317.56 10.63Q316.95 10.74 316.39 10.81L316.39 10.81Q316.06 11.55 315.80 12.24Q315.53 12.94 315.34 13.51Q315.15 14.08 315.05 14.50Q314.94 14.92 314.93 15.13L314.93 15.13Q316.06 14.90 317.22 14.73Q318.37 14.56 319.65 14.48L319.65 14.48Q319.80 14.71 319.91 14.99Q320.01 15.27 320.01 15.60L320.01 15.60Q320.01 15.68 320.01 15.78Q320.01 15.88 319.98 15.97L319.98 15.97Q319.59 15.96 319.16 15.95Q318.72 15.95 318.02 15.95L318.02 15.95Q317.56 15.95 317.15 15.97Q316.74 15.99 316.32 16.03Q315.90 16.07 315.43 16.14Q314.96 16.21 314.37 16.31L314.37 16.31Q313.73 16.06 313.12 15.08L313.12 15.08Q313.36 14.57 313.79 13.54Q314.22 12.52 314.87 10.79L314.87 10.79Q314.24 10.60 314.05 10.09L314.05 10.09Q314.12 10.02 314.45 9.92Q314.79 9.81 315.28 9.70L315.28 9.70Q315.49 9.16 315.64 8.75Q315.78 8.34 315.90 7.99Q316.01 7.63 316.10 7.29Q316.19 6.94 316.27 6.54L316.27 6.54Q315.78 6.51 315.50 6.27Q315.22 6.02 315.22 5.63L315.22 5.63Q315.22 5.52 315.26 5.36Q315.29 5.21 315.34 5.10L315.34 5.10Q315.62 5.14 315.87 5.15Q316.13 5.17 316.55 5.17L316.55 5.17Q317.44 5.17 318.21 5.12Q318.98 5.07 319.60 5.01Q320.22 4.96 320.67 4.91Q321.12 4.86 321.36 4.86L321.36 4.86Q321.68 4.86 321.93 5.19Q322.18 5.53 322.31 6.15L322.31 6.15Q321.87 6.10 321.60 6.09Q321.33 6.08 321.12 6.08L321.12 6.08Q320.35 6.08 319.71 6.15Q319.07 6.23 318.49 6.31L318.49 6.31Q318.40 6.44 318.30 6.64Q318.19 6.83 318.02 7.18Q317.86 7.53 317.61 8.06Q317.37 8.60 317.02 9.39L317.02 9.39Q317.55 9.31 318.02 9.26Q318.49 9.21 318.81 9.21ZM328.89 15.71L328.89 15.71Q328.66 15.68 328.42 15.52Q328.17 15.36 328.10 15.16L328.10 15.16Q328.10 14.99 328.15 14.73Q328.20 14.46 328.27 14.19Q328.34 13.92 328.41 13.67Q328.48 13.43 328.51 13.30L328.51 13.30Q328.68 13.30 328.94 13.38Q329.20 13.47 329.47 13.62Q329.74 13.76 329.99 13.95Q330.23 14.14 330.36 14.34L330.36 14.34Q330.23 14.62 330.04 14.87Q329.84 15.12 329.62 15.31Q329.41 15.50 329.21 15.60Q329.01 15.71 328.89 15.71Z"></path></g></svg>