<svg data-v-fde0c5aa="" xmlns="http://www.w3.org/2000/svg" viewBox="0 0 300 300" class="font"><!----><defs data-v-fde0c5aa=""><!----></defs><rect data-v-fde0c5aa="" fill="transparent" x="0" y="0" width="300px" height="300px" class="logo-background-square"></rect><defs data-v-fde0c5aa=""><linearGradient data-v-fde0c5aa="" gradientTransform="rotate(25)" id="5b81ac97-0510-4f9f-820f-9e46452555aa" x1="0%" y1="0%" x2="100%" y2="0%"><stop data-v-fde0c5aa="" offset="0%" stop-color="#000A68" stop-opacity="1"></stop><stop data-v-fde0c5aa="" offset="100%" stop-color="#00C4EE" stop-opacity="1"></stop></linearGradient></defs><g data-v-fde0c5aa="" id="51bb8079-bc70-4966-b39b-f81c2cbf5a5c" fill="url(#5b81ac97-0510-4f9f-820f-9e46452555aa)" transform="matrix(5.213270047928687,0,0,5.213270047928687,39.27014219018263,94.92180413120859)"><path d="M6.88 11.33L7.83 13.52L9.31 13.52L5.03 4.36L4.42 4.36L0.14 13.52L1.61 13.52L2.58 11.33ZM6.37 10.17L3.09 10.17L4.74 6.44ZM13.70 6.55C11.62 6.55 10.13 8.20 10.13 10.14C10.13 12.09 11.62 13.73 13.70 13.73C14.70 13.73 15.48 13.33 15.75 13.06L15.75 11.92C15.23 12.30 14.62 12.63 13.70 12.63C12.24 12.63 11.29 11.47 11.29 10.14C11.29 8.82 12.24 7.64 13.70 7.64C14.62 7.64 15.23 7.97 15.75 8.35L15.75 7.22C15.48 6.96 14.70 6.55 13.70 6.55ZM23.56 9.87C23.56 8.00 22.52 6.55 20.41 6.55C18.48 6.55 17.12 8.20 17.12 10.14C17.12 12.09 18.61 13.73 20.69 13.73C21.75 13.73 22.46 13.26 22.74 12.99L22.74 11.85C22.29 12.18 21.67 12.63 20.69 12.63C19.37 12.63 18.47 11.69 18.31 10.54L23.56 10.54ZM18.33 9.58C18.53 8.50 19.29 7.64 20.41 7.64C21.37 7.64 22.31 8.26 22.45 9.58ZM33.15 4.33L31.92 4.33L31.92 9.86C31.92 11.72 30.75 12.43 29.38 12.44C28.01 12.46 26.84 11.72 26.84 9.86L26.84 4.33L25.61 4.33L25.61 9.90C25.61 12.29 27.23 13.70 29.38 13.70C31.53 13.70 33.15 12.29 33.15 9.90ZM39.16 6.55C38.12 6.55 37.28 7.12 36.80 7.85L36.80 6.69L35.68 6.69L35.68 16.80L36.80 16.80L36.80 12.61C37.39 13.26 38.27 13.73 39.05 13.73C40.92 13.73 42.34 12.25 42.34 9.99C42.34 7.92 40.92 6.55 39.16 6.55ZM38.98 7.64C40.30 7.64 41.18 8.67 41.18 9.99C41.18 11.32 40.30 12.63 38.84 12.63C38.01 12.63 37.39 12.14 36.82 11.43L36.80 10.12C36.79 8.65 37.73 7.64 38.98 7.64Z"></path></g><!----><!----></svg>