<svg data-v-fde0c5aa="" xmlns="http://www.w3.org/2000/svg" viewBox="0 0 300 300" class="iconLeftSlogan"><!----><defs data-v-fde0c5aa=""><!----></defs><rect data-v-fde0c5aa="" fill="transparent" x="0" y="0" width="300px" height="300px" class="logo-background-square"></rect><defs data-v-fde0c5aa=""><!----></defs><g data-v-fde0c5aa="" id="7d6a3be1-46e2-4342-b58e-8b96b55ddfe6" fill="#000000" transform="matrix(2.940249183782638,0,0,2.940249183782638,135.50984731365847,108.9362686071141)"><path d="M6.88 11.33L7.83 13.52L9.31 13.52L5.03 4.36L4.42 4.36L0.14 13.52L1.61 13.52L2.58 11.33ZM6.37 10.17L3.09 10.17L4.74 6.44ZM13.70 6.55C11.62 6.55 10.13 8.20 10.13 10.14C10.13 12.09 11.62 13.73 13.70 13.73C14.70 13.73 15.48 13.33 15.75 13.06L15.75 11.92C15.23 12.30 14.62 12.63 13.70 12.63C12.24 12.63 11.29 11.47 11.29 10.14C11.29 8.82 12.24 7.64 13.70 7.64C14.62 7.64 15.23 7.97 15.75 8.35L15.75 7.22C15.48 6.96 14.70 6.55 13.70 6.55ZM23.56 9.87C23.56 8.00 22.52 6.55 20.41 6.55C18.48 6.55 17.12 8.20 17.12 10.14C17.12 12.09 18.61 13.73 20.69 13.73C21.75 13.73 22.46 13.26 22.74 12.99L22.74 11.85C22.29 12.18 21.67 12.63 20.69 12.63C19.37 12.63 18.47 11.69 18.31 10.54L23.56 10.54ZM18.33 9.58C18.53 8.50 19.29 7.64 20.41 7.64C21.37 7.64 22.31 8.26 22.45 9.58ZM33.15 4.33L31.92 4.33L31.92 9.86C31.92 11.72 30.75 12.43 29.38 12.44C28.01 12.46 26.84 11.72 26.84 9.86L26.84 4.33L25.61 4.33L25.61 9.90C25.61 12.29 27.23 13.70 29.38 13.70C31.53 13.70 33.15 12.29 33.15 9.90ZM39.16 6.55C38.12 6.55 37.28 7.12 36.80 7.85L36.80 6.69L35.68 6.69L35.68 16.80L36.80 16.80L36.80 12.61C37.39 13.26 38.27 13.73 39.05 13.73C40.92 13.73 42.34 12.25 42.34 9.99C42.34 7.92 40.92 6.55 39.16 6.55ZM38.98 7.64C40.30 7.64 41.18 8.67 41.18 9.99C41.18 11.32 40.30 12.63 38.84 12.63C38.01 12.63 37.39 12.14 36.82 11.43L36.80 10.12C36.79 8.65 37.73 7.64 38.98 7.64Z"></path></g><defs data-v-fde0c5aa=""><linearGradient data-v-fde0c5aa="" gradientTransform="rotate(25)" id="d4dea77a-48a6-4aeb-809d-d4be152c281b" x1="0%" y1="0%" x2="100%" y2="0%"><stop data-v-fde0c5aa="" offset="0%" stop-color="#000A68" stop-opacity="1"></stop><stop data-v-fde0c5aa="" offset="100%" stop-color="#00C4EE" stop-opacity="1"></stop></linearGradient></defs><g data-v-fde0c5aa="" id="f7c2ee80-1fba-4807-a1ef-d3c784136c0b" stroke="none" fill="url(#d4dea77a-48a6-4aeb-809d-d4be152c281b)" transform="matrix(0.921348005851217,0,0,0.921348005851217,35.393360138659894,103.93290899784638)"><path d="M77.951 12.136a18.687 18.687 0 00-.432 0c-2.77.035-5.634.72-8.452 2.073-4.399 2.113-9.068 6.204-11.954 10.473-1.163 1.722-1.804 2.976-2.476 4.848-1.074 2.992-1.204 4.114-1.236 10.726-.027 5.693-.061 6.24-.48 7.709-1.04 3.65-2.293 5.423-7.696 10.885l-4.38 4.429 1.552 1.55 1.551 1.552 4.32-4.331c2.377-2.382 4.909-4.741 5.627-5.242 1.81-1.264 2.915-1.798 4.907-2.375 2.381-.69 5.076-.918 8.554-.722 8.302.469 13.383-1.39 19.164-7.009 4.217-4.099 6.777-8.173 8.02-12.763.582-2.152.619-6.566.07-8.553-.883-3.2-2.39-5.813-4.68-8.11-3.332-3.344-7.523-5.087-11.979-5.14zm-.043 2.102c2.559.001 2.959.053 4.421.563.884.308 2.24.932 3.014 1.386 1.627.954 4.29 3.537 5.404 5.243 4.431 6.78 2.462 15.622-5.203 23.36-3.472 3.506-6.705 5.397-10.591 6.198-2.224.458-6.609.41-8.67-.097-5.808-1.427-9.686-6.047-10.392-12.378-.55-4.925.851-10.05 3.811-13.945 2.444-3.217 7.074-7.011 10.533-8.632 2.884-1.352 4.455-1.7 7.673-1.697zm.835 1.804l-.116 1.306-.116 1.306-1.905.058c-2.182.067-2.392-.058-2.448-1.453-.029-.724-.046-.692-.15.29l-.119 1.105-1.905.058c-1.64.05-1.943.008-2.172-.301-.253-.342-.276-.342-.466-.008-.11.193-.398.36-.641.372-.408.018-.404.03.06.16.497.137.503.164.503 2.34v2.202h-4.02l-.116-1.206c-.102-1.052-.121-1.095-.15-.338-.055 1.38-.286 1.64-1.499 1.672l-1.048.029 1.043.127c.574.07 1.1.184 1.171.255.248.248.33 3.547.1 3.978-.209.388-.373.416-2.174.363l-1.948-.058-.12-.904c-.079-.585-.132-.705-.151-.338-.041.767-.374 1.34-.79 1.359-.277.012-.285.037-.044.123.613.22.804.747.804 2.223 0 2.038-.145 2.25-1.565 2.297l-1.148.037 1.105.071c1.426.092 1.608.343 1.608 2.217 0 2.094-.12 2.25-1.766 2.298l-1.35.039 1.307.069c.92.048 1.38.167 1.557.401.29.383.342 3.218.068 3.65-.097.154-.525.347-.95.43l-.775.149.746.023c.927.029 1.15.394 1.199 1.97.035 1.15.037 1.146.15-.34l.115-1.506 1.948-.058c1.82-.054 1.964-.029 2.18.376.258.48.197 3.461-.076 3.735-.091.091-.77.22-1.506.285l-1.34.12 1.35.031c1.441.034 1.73.239 1.793 1.274.016.256.083.104.15-.338l.123-.804h4.019l.087 1.306c.057.84.111 1.055.153.603.036-.387.114-1 .174-1.363l.109-.66 2.05.057 2.049.057.116 1.206c.113 1.158.119 1.169.151.267.058-1.592.03-1.573 2.272-1.573 1.88 0 2.004.025 2.16.448l.167.45.142-.45c.079-.247.295-.453.48-.459.273-.008.25-.072-.113-.326-.41-.286-.452-.477-.45-2.049.003-.954.078-1.85.168-1.993.12-.19.698-.243 2.157-.2l1.993.057.117 1.206c.112 1.158.118 1.169.15.268.054-1.48.133-1.57 1.412-1.61l1.134-.037-1-.077c-.55-.042-1.114-.173-1.255-.29-.267-.221-.372-3.244-.135-3.864.1-.26.48-.318 2.086-.318 2.082 0 2.3.089 2.468 1.005.077.42.097.395.12-.157.017-.407.153-.708.357-.786.304-.117.303-.146-.008-.373-.283-.207-.328-.561-.28-2.228l.059-1.982 1.205-.111 1.206-.111-1.206-.09-1.205-.09v-4.22l1.406-.09 1.407-.091-1.407-.11-1.406-.11-.058-2.094c-.063-2.278-.011-2.397 1.062-2.453.515-.027.486-.05-.2-.154l-.804-.122-.116-1.407-.115-1.407-.035 1.216c-.02.669-.144 1.324-.277 1.457-.154.154-.942.241-2.189.241-1.59 0-1.97-.058-2.07-.318-.227-.592-.133-3.81.12-4.062.132-.133.788-.259 1.456-.28l1.216-.038-1.199-.073c-1.367-.085-1.703-.284-1.74-1.03-.022-.431-.05-.398-.152.175l-.124.703-1.879.058c-1.212.038-1.978-.025-2.16-.175-.17-.142-.295-.678-.316-1.365l-.035-1.13zm-7.75 2.938c.262-.002.586.005.99.017l1.906.059v4.42l-1.948.058c-1.765.052-1.968.02-2.16-.338-.302-.564-.27-3.482.042-3.91.162-.22.386-.3 1.17-.306zm4.622 0c.262-.002.586.005.99.017l1.906.059v4.42l-1.912.057c-1.316.04-1.99-.02-2.16-.19-.34-.34-.335-3.59.006-4.056.162-.222.386-.302 1.17-.307zm4.815.008c.245-.003.52 0 .824.01l1.879.058V23.477l-2.036.057c-1.723.048-2.054.007-2.16-.268-.068-.178-.125-1.12-.125-2.092 0-1.27.08-1.833.281-2 .137-.114.602-.177 1.337-.186zm.625 4.78c.908.01 1.809.109 1.96.29.152.183.213.974.176 2.261l-.058 1.98-1.913.057c-1.315.04-1.99-.02-2.16-.19-.333-.334-.339-3.814-.006-4.147.178-.179 1.093-.26 2.001-.25zm-4.672.01c1.277 0 1.843.08 2.01.281.152.183.213.974.176 2.26l-.058 1.98-1.949.058c-1.765.052-1.968.02-2.16-.338-.273-.51-.276-3.344-.004-3.852.182-.34.434-.389 1.985-.389zm9.395 0c2.233 0 2.278.046 2.278 2.311 0 2.266-.045 2.311-2.278 2.311-1.18 0-1.95-.088-2.103-.241-.152-.152-.24-.915-.24-2.07 0-1.154.088-1.917.24-2.07.153-.152.923-.24 2.103-.24zm-14.042.003c.963.002 1.867.077 2.01.167.19.121.243.718.2 2.258L73.89 28.3l-1.949.057c-1.765.052-1.968.02-2.16-.338-.272-.51-.276-3.344-.004-3.852.182-.339.432-.388 1.96-.386zm-4.377.004c.818.011 1.615.068 1.765.164.19.12.243.718.201 2.257l-.057 2.094-1.92.057c-1.055.031-1.982-.006-2.06-.084-.077-.077-.14-1.065-.14-2.196 0-1.688.057-2.076.318-2.177.235-.09 1.074-.125 1.893-.115zm18.42 4.816c2.22 0 2.277.056 2.277 2.21 0 2.155-.057 2.211-2.278 2.211-1.18 0-1.95-.088-2.103-.241-.15-.15-.24-.893-.24-1.97 0-1.076.09-1.819.24-1.969.153-.153.923-.24 2.103-.24zm-14.785.025c.261-.002.585.005.99.017l1.905.059v4.22l-1.948.057c-1.765.052-1.968.02-2.16-.338-.3-.56-.269-3.282.042-3.708.162-.222.386-.302 1.17-.307zm4.621 0c.262-.002.586.005.99.017l1.906.059v4.22l-1.948.057c-1.765.052-1.968.02-2.16-.338-.3-.56-.27-3.282.042-3.708.162-.222.386-.302 1.17-.307zm-12.266 0c1.541-.012 1.55.24 1.55 2.186 0 2.193-.017 2.21-2.263 2.21-1.41 0-1.949-.07-2.024-.266-.056-.147-.076-1.119-.043-2.16l.058-1.894 1.963-.058c.287-.008.539-.016.759-.017zm17.081.008c.245-.003.52 0 .824.01l1.879.058.058 1.993c.042 1.458-.012 2.036-.201 2.157-.415.262-3.661.204-3.936-.071-.358-.358-.325-3.66.04-3.962.136-.113.6-.176 1.336-.185zM65.25 28.7h4.019v4.22l-1.963.058c-1.511.044-1.987-.005-2.068-.216-.058-.15-.079-1.126-.047-2.168l.059-1.894zm-.7 4.507l.216.56c.311.807.15 3.445-.224 3.681-.365.231-3.414.25-3.771.024-.19-.12-.244-.698-.201-2.157l.058-1.993 1.961-.057 1.962-.058zm21.23.015c2.22 0 2.277.055 2.277 2.21s-.057 2.21-2.278 2.21c-1.18 0-1.95-.088-2.103-.24-.15-.15-.24-.894-.24-1.97s.09-1.819.24-1.97c.153-.152.923-.24 2.103-.24zm-14.785.025c.261-.002.585.005.99.017l1.905.058.058 1.993c.042 1.459-.011 2.037-.2 2.157-.143.09-1.053.166-2.023.167-1.709.003-1.77-.012-1.96-.512-.282-.745-.243-3.16.06-3.574.161-.221.385-.301 1.17-.306zm4.621 0c.262-.002.586.005.99.017l1.906.058.058 1.993c.042 1.459-.012 2.037-.201 2.157-.142.09-1.047.166-2.01.167-1.528.003-1.778-.046-1.96-.385-.296-.555-.262-3.278.047-3.7.162-.222.386-.302 1.17-.307zm4.815.008c.245-.003.52 0 .824.01l1.879.058.058 1.878c.037 1.213-.025 1.98-.176 2.16-.302.365-3.604.399-3.961.04-.358-.357-.325-3.659.04-3.961.136-.113.6-.176 1.336-.185zm-15.181.067h4.019l.057 1.993c.043 1.46-.011 2.037-.2 2.157-.143.09-.983.164-1.867.164s-1.724-.074-1.866-.164c-.19-.12-.244-.698-.201-2.157l.058-1.993zm-1.596 4.544c.819.003.94.093 1.102.397.339.632.176 3.561-.212 3.806-.367.232-3.415.252-3.773.025-.19-.12-.244-.698-.201-2.157l.058-1.993 1.948-.057c.455-.014.806-.022 1.078-.021zm7.21 0c.273-.001.623.007 1.078.02l1.948.058.058 1.993c.042 1.459-.011 2.037-.2 2.157-.36.227-3.407.207-3.774-.025-.388-.245-.55-3.174-.212-3.806.162-.304.284-.394 1.102-.397zm4.945.01c.246-.003.52 0 .824.01l1.88.058.057 1.88c.038 1.212-.025 1.978-.175 2.16-.348.419-3.461.391-3.887-.035-.427-.426-.455-3.54-.035-3.887.136-.113.6-.177 1.336-.185zm4.622 0c.245-.003.52 0 .824.01l1.879.058.058 1.88c.037 1.212-.025 1.978-.176 2.16-.348.419-3.46.391-3.887-.035-.426-.426-.454-3.54-.035-3.887.137-.113.602-.177 1.337-.185zm-15.181.068h4.019l.057 1.993c.043 1.459-.011 2.037-.2 2.157-.143.09-.983.164-1.867.164s-1.724-.074-1.866-.164c-.19-.12-.244-.698-.201-2.157l.058-1.993zm5.975 4.548c.222 0 .474.007.76.015l1.905.059.058 1.993c.042 1.459-.011 2.036-.2 2.157-.143.09-1.002.165-1.91.167-1.44.003-1.701-.053-2.06-.437-.321-.346-.409-.371-.409-.122 0 .175-.143.373-.318.44-.47.18-3.358.142-3.658-.048-.19-.12-.244-.698-.201-2.157l.058-1.993h4.019l.113 1.607.114 1.608.037-1.318c.047-1.696.138-1.975 1.692-1.971zm4.584.006c.246-.003.52 0 .824.01l1.88.058.057 1.993c.042 1.459-.012 2.036-.201 2.157-.142.09-.998.165-1.902.167-1.23.002-1.723-.076-1.96-.313-.426-.426-.454-3.539-.034-3.887.136-.113.6-.176 1.336-.185zm-36.954 22.21l-5.346 5.086h7.605l1.127-1.399-3.386-3.687zm-7.957 7.497l-2.723 2.858 7.727.156 2.722-2.858-7.726-.156zm-5.446 5.426l-2.792 2.813h8.239l2.792-2.813h-8.24zm-5.078 5.224c-.327.468-1.015.999-1.04 1.593 0 .876 2.226 3.127 3.379 3.415.035.01.26-.09.502-.217.564-.3 4.96-4.395 4.96-4.62l-7.8-.17z"></path><path d="M22.049 12.136c-4.456.053-8.647 1.796-11.98 5.14-2.288 2.297-3.797 4.91-4.68 8.11-.548 1.987-.511 6.401.072 8.553 1.243 4.59 3.802 8.664 8.02 12.763 5.78 5.62 10.86 7.478 19.163 7.01 3.478-.197 6.173.03 8.554.72.715.208 1.314.41 1.874.642l4.81-4.82c-.31-.71-.564-1.448-.803-2.29-.419-1.467-.453-2.015-.48-7.708-.032-6.612-.161-7.734-1.235-10.726-.672-1.872-1.314-3.126-2.477-4.848-2.887-4.27-7.555-8.36-11.954-10.473-2.818-1.354-5.682-2.037-8.452-2.072a16.91 16.91 0 00-.432 0zm.043 2.102c3.217-.002 4.789.346 7.673 1.698 3.459 1.62 8.089 5.415 10.533 8.632 2.96 3.895 4.36 9.02 3.812 13.945-.706 6.331-4.585 10.95-10.394 12.378-2.06.506-6.445.555-8.669.097-3.886-.801-7.12-2.693-10.591-6.198-7.665-7.738-9.634-16.58-5.203-23.36 1.115-1.706 3.777-4.29 5.404-5.244.773-.453 2.13-1.077 3.014-1.386 1.462-.51 1.862-.56 4.42-.562zm-.835 1.804v.003zm0 .003l-.035 1.128c-.021.686-.146 1.222-.316 1.364-.182.15-.948.213-2.16.176l-1.88-.059-.124-.703c-.1-.573-.129-.606-.15-.175-.038.746-.374.946-1.742 1.03l-1.198.074 1.215.038c.669.02 1.325.146 1.457.279.252.252.347 3.47.12 4.063-.1.26-.48.318-2.07.318-1.248 0-2.035-.087-2.19-.242-.132-.132-.256-.788-.276-1.456l-.035-1.216-.116 1.407-.115 1.406-.804.122c-.686.105-.715.127-.2.154 1.073.056 1.124.176 1.062 2.453l-.058 2.094-1.406.11-1.407.11 1.407.09 1.406.092v4.22l-1.206.09-1.205.09 1.205.11 1.206.111.058 1.982c.049 1.667.004 2.021-.28 2.228-.31.228-.31.257-.007.373.203.079.34.38.357.786.023.552.043.578.12.157.168-.916.386-1.004 2.468-1.004 1.605 0 1.985.058 2.085.317.238.62.133 3.643-.134 3.865-.141.117-.706.247-1.256.29l-1 .077 1.134.036c1.28.04 1.359.131 1.412 1.61.033.901.039.89.15-.268l.117-1.205 1.993-.058c1.46-.043 2.037.011 2.157.2.09.143.166 1.04.168 1.993.002 1.573-.04 1.763-.45 2.05-.363.253-.385.317-.113.325.186.006.402.213.48.46l.143.449.166-.45c.156-.422.28-.448 2.16-.448 2.242 0 2.215-.019 2.273 1.574.032.9.038.89.15-.268l.117-1.205 2.05-.058 2.049-.057.109.66c.06.363.138.977.173 1.364.042.451.097.236.153-.603l.088-1.306h4.019l.122.803c.067.442.135.595.151.339.063-1.036.352-1.24 1.794-1.275l1.349-.031-1.34-.12c-.737-.065-1.415-.193-1.506-.285-.273-.273-.334-3.254-.077-3.734.216-.405.36-.43 2.18-.377l1.949.058.114 1.507c.113 1.485.116 1.49.151.338.049-1.574.271-1.94 1.199-1.969l.746-.023-.775-.15c-.426-.082-.853-.275-.95-.428-.274-.433-.222-3.268.067-3.65.177-.235.637-.353 1.557-.402l1.307-.069-1.35-.039c-1.645-.047-1.765-.203-1.765-2.298 0-1.873.182-2.124 1.608-2.216l1.105-.072-1.148-.037c-1.42-.046-1.565-.259-1.565-2.296 0-1.477.19-2.004.804-2.223.241-.087.233-.111-.043-.124-.417-.02-.75-.592-.791-1.359-.02-.366-.073-.247-.15.338l-.121.905-1.948.057c-1.802.053-1.966.026-2.173-.362-.231-.432-.15-3.731.098-3.979.07-.07.598-.185 1.172-.255l1.042-.127-1.048-.028c-1.212-.033-1.444-.292-1.497-1.673-.03-.757-.05-.713-.151.338l-.117 1.206h-4.02v-2.201c0-2.177.007-2.203.503-2.342.464-.129.469-.14.06-.16-.243-.01-.53-.177-.64-.37-.19-.335-.214-.334-.466.007-.23.31-.532.352-2.172.302l-1.906-.059-.118-1.105c-.105-.981-.122-1.014-.15-.29-.057 1.396-.266 1.52-2.448 1.454l-1.906-.059-.116-1.306zm3.128 2.936c.784.005 1.008.085 1.17.306.34.466.346 3.717.006 4.056-.17.17-.844.23-2.16.19l-1.913-.056v-4.42l1.907-.059c.404-.012.728-.019.99-.017zm4.621 0c.785.005 1.008.085 1.17.306.313.428.344 3.346.043 3.91-.192.358-.395.39-2.16.338l-1.949-.058v-4.42l1.906-.06c.405-.012.729-.018.99-.016zm-9.437.008c.736.009 1.201.072 1.337.185.202.167.281.731.281 2 0 .973-.056 1.914-.125 2.093-.105.274-.437.315-2.16.267l-2.035-.057v-4.42l1.88-.059c.302-.009.577-.012.822-.01zm-.625 4.78c.908-.009 1.823.072 2.002.25.332.333.327 3.813-.006 4.147-.17.17-.845.23-2.16.19l-1.913-.056-.058-1.98c-.038-1.287.024-2.078.175-2.26.152-.183 1.052-.282 1.96-.291zm-4.723.01c1.18 0 1.95.088 2.103.241.152.152.241.916.241 2.07s-.089 1.917-.24 2.07c-.154.152-.923.24-2.104.24-2.232 0-2.277-.045-2.277-2.31s.045-2.311 2.277-2.311zm9.395 0c1.551 0 1.804.05 1.985.389.272.507.269 3.342-.004 3.851-.192.359-.395.39-2.16.339L21.49 28.3l-.058-1.98c-.038-1.287.024-2.078.175-2.26.168-.202.734-.281 2.01-.281zm4.648.003c1.528-.003 1.778.046 1.96.386.271.507.268 3.342-.004 3.851-.192.359-.395.39-2.16.339l-1.95-.058-.057-2.094c-.042-1.54.011-2.136.201-2.257.143-.09 1.047-.165 2.01-.167zm4.377.004c.818-.01 1.658.025 1.893.115.26.1.317.489.317 2.177 0 1.13-.063 2.118-.14 2.196-.078.077-1.005.115-2.06.083l-1.919-.057-.057-2.093c-.043-1.54.01-2.137.2-2.258.15-.095.948-.152 1.766-.163zm-18.42 4.816c1.18 0 1.95.088 2.103.24.15.151.241.894.241 1.97s-.09 1.82-.24 1.97c-.154.152-.923.24-2.104.24-2.22 0-2.277-.055-2.277-2.21s.057-2.21 2.277-2.21zm10.164.025c.784.005 1.008.085 1.17.306.311.426.342 3.148.042 3.708-.192.359-.395.39-2.16.339l-1.949-.058v-4.22l1.907-.058c.404-.013.728-.02.99-.018zm4.621 0c.785.005 1.008.085 1.17.306.312.426.343 3.148.043 3.708-.192.359-.395.39-2.16.339l-1.949-.058v-4.22l1.906-.058c.405-.013.729-.02.99-.018zm7.645 0c.22.002.472.01.759.017l1.963.058.058 1.894c.032 1.042.012 2.014-.044 2.16-.075.196-.614.267-2.024.267-2.246 0-2.263-.017-2.263-2.21 0-1.946.01-2.198 1.551-2.186zm-17.082.007c.736.01 1.201.072 1.337.185.365.303.398 3.604.04 3.962-.275.275-3.522.334-3.936.07-.19-.12-.243-.697-.201-2.156l.058-1.993 1.88-.058c.302-.01.577-.013.822-.01zm11.163.068h4.019l.059 1.894c.032 1.042.01 2.017-.047 2.167-.081.21-.557.26-2.068.216l-1.963-.057v-2.11zm4.718 4.506l1.961.058 1.962.058.058 1.993c.042 1.459-.012 2.036-.201 2.157-.357.226-3.406.207-3.771-.024-.375-.237-.536-2.874-.225-3.681zm-21.229.015c1.18 0 1.95.089 2.103.241.15.15.241.894.241 1.97s-.09 1.819-.24 1.969c-.154.153-.923.241-2.104.241-2.22 0-2.277-.055-2.277-2.21s.057-2.21 2.277-2.21zm10.164.025c.784.005 1.008.085 1.17.307.31.423.343 3.145.046 3.7-.181.34-.432.389-1.96.386-.962-.002-1.867-.077-2.01-.167-.189-.12-.243-.699-.2-2.157l.057-1.993 1.907-.059c.404-.012.728-.019.99-.017zm4.621 0c.785.005 1.008.085 1.17.307.303.413.342 2.829.059 3.574-.19.5-.25.515-1.96.512-.97-.002-1.88-.077-2.022-.167-.19-.12-.243-.699-.2-2.157l.057-1.993 1.906-.059c.405-.012.729-.019.99-.017zm-9.437.008c.736.01 1.201.072 1.337.185.365.302.398 3.604.04 3.962-.358.358-3.659.324-3.962-.04-.15-.182-.212-.948-.175-2.16l.058-1.88 1.88-.057c.302-.01.577-.013.822-.01zm11.163.068h4.019l.058 1.993c.042 1.459-.011 2.036-.201 2.157-.142.09-.982.164-1.867.164-.884 0-1.723-.074-1.866-.164-.19-.12-.243-.698-.2-2.157zm-1.595 4.543c.818.003.94.094 1.102.397.338.633.175 3.561-.212 3.806-.367.233-3.415.253-3.774.025-.19-.12-.243-.698-.2-2.157l.057-1.992 1.948-.058c.455-.013.806-.022 1.079-.02zm7.21 0c.272 0 .623.007 1.078.021l1.948.058.058 1.992c.042 1.46-.012 2.037-.201 2.157-.359.228-3.407.208-3.774-.025-.387-.244-.55-3.173-.212-3.806.163-.303.284-.393 1.102-.397zm-16.778.01c.736.01 1.201.073 1.337.186.42.348.392 3.46-.034 3.887-.427.426-3.54.454-3.888.035-.15-.182-.212-.948-.175-2.16l.058-1.88 1.88-.057c.302-.01.577-.013.822-.01zm4.622 0c.736.01 1.201.073 1.337.186.42.348.392 3.46-.035 3.887-.426.426-3.539.454-3.887.035-.15-.182-.213-.948-.175-2.16l.057-1.88 1.88-.057c.303-.01.578-.013.823-.01zm6.541.069h4.019l.058 1.992c.042 1.46-.011 2.037-.201 2.157-.142.09-.982.165-1.867.165-.884 0-1.723-.074-1.866-.165-.19-.12-.243-.698-.2-2.157zm-1.956 4.547c1.554-.004 1.645.276 1.692 1.971l.037 1.319.114-1.608.113-1.608h4.019l.058 1.993c.042 1.46-.011 2.037-.201 2.157-.3.19-3.188.229-3.658.049-.175-.067-.319-.265-.319-.44 0-.25-.087-.224-.409.122-.358.384-.619.44-2.06.437-.907-.002-1.766-.077-1.909-.168-.19-.12-.243-.698-.2-2.157l.057-1.993 1.906-.058c.286-.009.538-.015.76-.016zm-4.585.006c.736.01 1.201.072 1.337.185.42.348.392 3.461-.035 3.888-.236.236-.73.315-1.959.312-.904-.002-1.76-.077-1.902-.167-.19-.12-.244-.698-.201-2.157l.057-1.993 1.88-.058c.303-.009.578-.013.823-.01zM56.198 60.29l-3.112 3.119 2.966 2.973 3.103-3.103zm4.948 4.42l-3.387 3.687 1.127 1.398h7.605zm7.956 7.497l-7.726.156L64.1 75.22l7.726-.156zm-2.792 5.425l2.792 2.813h8.239l-2.792-2.813zm13.316 5.225l-7.8.17c0 .226 4.396 4.32 4.96 4.62.241.128.467.226.502.217 1.153-.288 3.379-2.538 3.379-3.414-.025-.594-.713-1.126-1.04-1.593z"></path></g><defs data-v-fde0c5aa=""><!----></defs><g data-v-fde0c5aa="" id="1cf0b066-93ee-43c7-8965-8f01bc48cb2f" fill="#000000" transform="matrix(0.415019959501767,0,0,0.415019959501767,135.78037541342576,165.9709890581176)"><path d="M3.75 14.40L0.34 14.40L0.38 14.11L1.46 13.90L1.46 6.51L0.35 6.36L0.41 6.12Q0.58 6.09 1.03 6.02Q1.48 5.94 1.71 5.91Q1.93 5.88 2.34 5.84Q2.75 5.81 3.17 5.81L3.17 5.81Q3.86 5.81 4.45 5.96Q5.04 6.10 5.50 6.40Q5.96 6.69 6.22 7.18Q6.48 7.66 6.48 8.29L6.48 8.29Q6.48 8.90 6.20 9.43Q5.92 9.97 5.46 10.33Q5.00 10.69 4.40 10.90Q3.79 11.10 3.16 11.10L3.16 11.10Q2.88 11.10 2.82 11.09L2.82 11.09L2.75 10.80L3.12 10.78Q3.78 10.75 4.28 10.55Q4.77 10.36 5.06 10.03Q5.35 9.70 5.49 9.30Q5.63 8.90 5.63 8.43L5.63 8.43Q5.63 7.98 5.47 7.57Q5.30 7.16 4.98 6.83Q4.66 6.50 4.13 6.31Q3.61 6.11 2.96 6.11L2.96 6.11L2.21 6.15L2.21 13.95L3.81 14.08L3.75 14.40ZM20.34 14.40L14.18 14.40L14.22 14.11L15.37 13.90L15.37 6.34L14.20 6.17L14.23 5.90L17.34 5.90L17.31 6.17L16.11 6.32L16.11 14.03L19.73 14.03L20.25 12.09L20.56 12.14L20.34 14.40ZM32.33 6.98L30.97 10.75L33.65 10.75L32.33 6.98ZM31.01 14.40L28.29 14.40L28.32 14.11L29.29 13.90L32.29 5.82L32.65 5.73L35.49 13.95L36.39 14.08L36.33 14.39L33.54 14.39L33.60 14.10L34.73 13.90L33.78 11.13L30.83 11.13L29.82 13.95L31.08 14.08L31.01 14.40ZM45.01 6.35L44.06 6.15L44.09 5.90L46.94 5.90L46.92 6.15L45.78 6.32L47.92 10.49L50.04 6.34L48.77 6.14L48.79 5.89L51.45 5.89L51.43 6.14L50.55 6.32L48.17 11.05L48.17 13.94L49.40 14.08L49.35 14.40L46.20 14.40L46.25 14.11L47.44 13.90L47.44 11.05L45.01 6.35ZM59.27 13.92L59.27 13.92Q59.27 13.25 59.70 13.25Q60.13 13.25 60.13 13.92L60.13 13.92Q60.13 14.62 59.70 14.62Q59.27 14.62 59.27 13.92ZM77.85 10.25L77.85 10.25Q77.85 9.73 77.95 9.21Q78.06 8.68 78.26 8.17Q78.46 7.66 78.79 7.22Q79.12 6.77 79.53 6.44Q79.95 6.10 80.50 5.90Q81.06 5.71 81.70 5.71L81.70 5.71Q83.11 5.71 84.02 6.39L84.02 6.39L83.81 8.70L83.49 8.64L83.28 6.87Q82.69 6.09 81.38 6.09L81.38 6.09Q80.23 6.09 79.40 7.19Q78.57 8.30 78.57 10.00L78.57 10.00Q78.57 11.92 79.38 12.97Q80.18 14.03 81.66 14.03L81.66 14.03Q82.39 14.03 83.08 13.65Q83.77 13.28 84.24 12.74L84.24 12.74L84.40 12.99Q84.23 13.25 83.94 13.51Q83.65 13.77 83.27 14.02Q82.88 14.27 82.37 14.42Q81.87 14.57 81.34 14.57L81.34 14.57Q79.77 14.57 78.81 13.40Q77.85 12.22 77.85 10.25ZM92.85 9.75L92.85 9.75Q92.85 11.03 93.21 12.01Q93.58 13.00 94.29 13.57Q95.01 14.14 95.99 14.14L95.99 14.14Q96.56 14.14 97.06 13.92Q97.55 13.70 97.89 13.33Q98.24 12.96 98.48 12.49Q98.72 12.01 98.84 11.50Q98.96 10.99 98.96 10.48L98.96 10.48Q98.96 8.50 98.11 7.29Q97.25 6.07 95.81 6.07L95.81 6.07Q95.22 6.07 94.73 6.28Q94.24 6.49 93.90 6.85Q93.56 7.21 93.32 7.69Q93.08 8.16 92.97 8.69Q92.85 9.21 92.85 9.75ZM92.10 10.16L92.10 10.16Q92.10 8.16 93.20 6.92Q94.29 5.69 96.13 5.69L96.13 5.69Q97.27 5.69 98.09 6.27Q98.90 6.86 99.30 7.84Q99.70 8.83 99.70 10.11L99.70 10.11Q99.70 10.75 99.54 11.38Q99.39 12.00 99.07 12.58Q98.75 13.17 98.28 13.61Q97.82 14.05 97.15 14.32Q96.47 14.58 95.66 14.58L95.66 14.58Q94.61 14.58 93.79 13.98Q92.96 13.37 92.53 12.37Q92.10 11.37 92.10 10.16ZM108.66 6.36L107.40 6.14L107.45 5.89L109.53 5.89L114.25 13.17L114.25 6.33L113.00 6.16L113.04 5.89L115.94 5.89L115.88 6.16L114.75 6.32L114.75 14.44L114.38 14.52L109.17 6.65L109.17 13.95L110.43 14.08L110.36 14.40L107.48 14.40L107.52 14.11L108.66 13.90L108.66 6.36ZM124.87 6.36L123.60 6.14L123.66 5.89L125.73 5.89L130.45 13.17L130.45 6.33L129.20 6.16L129.24 5.89L132.14 5.89L132.08 6.16L130.95 6.32L130.95 14.44L130.58 14.52L125.37 6.65L125.37 13.95L126.63 14.08L126.56 14.40L123.68 14.40L123.72 14.11L124.87 13.90L124.87 6.36ZM141.05 6.36L139.82 6.18L139.87 5.89L146.06 5.89L145.85 8.07L145.54 8.03L145.41 6.24L141.76 6.24L141.76 9.89L144.05 9.89L144.30 8.94L144.67 8.89L144.44 11.55L144.09 11.61L143.99 10.26L141.76 10.26L141.76 14.03L145.60 14.03L146.10 12.19L146.38 12.26L146.18 14.40L139.84 14.40L139.88 14.11L141.05 13.90L141.05 6.36ZM154.12 10.25L154.12 10.25Q154.12 9.73 154.23 9.21Q154.33 8.68 154.54 8.17Q154.74 7.66 155.07 7.22Q155.39 6.77 155.81 6.44Q156.22 6.10 156.78 5.90Q157.34 5.71 157.97 5.71L157.97 5.71Q159.39 5.71 160.30 6.39L160.30 6.39L160.08 8.70L159.76 8.64L159.56 6.87Q158.96 6.09 157.65 6.09L157.65 6.09Q156.50 6.09 155.67 7.19Q154.85 8.30 154.85 10.00L154.85 10.00Q154.85 11.92 155.65 12.97Q156.45 14.03 157.93 14.03L157.93 14.03Q158.66 14.03 159.35 13.65Q160.04 13.28 160.51 12.74L160.51 12.74L160.67 12.99Q160.50 13.25 160.21 13.51Q159.93 13.77 159.54 14.02Q159.15 14.27 158.65 14.42Q158.14 14.57 157.62 14.57L157.62 14.57Q156.04 14.57 155.08 13.40Q154.12 12.22 154.12 10.25ZM168.41 8.09L168.34 5.89L175.40 5.89L175.16 8.16L174.82 8.12L174.71 6.24L172.17 6.24L172.17 13.90L173.38 14.08L173.30 14.40L170.21 14.40L170.24 14.11L171.44 13.90L171.44 6.24L169.00 6.24L168.77 8.15L168.41 8.09ZM183.22 13.92L183.22 13.92Q183.22 13.25 183.65 13.25Q184.08 13.25 184.08 13.92L184.08 13.92Q184.08 14.62 183.65 14.62Q183.22 14.62 183.22 13.92ZM201.80 10.25L201.80 10.25Q201.80 9.73 201.91 9.21Q202.02 8.68 202.22 8.17Q202.42 7.66 202.75 7.22Q203.08 6.77 203.49 6.44Q203.90 6.10 204.46 5.90Q205.02 5.71 205.65 5.71L205.65 5.71Q207.07 5.71 207.98 6.39L207.98 6.39L207.76 8.70L207.44 8.64L207.24 6.87Q206.64 6.09 205.33 6.09L205.33 6.09Q204.18 6.09 203.36 7.19Q202.53 8.30 202.53 10.00L202.53 10.00Q202.53 11.92 203.33 12.97Q204.13 14.03 205.61 14.03L205.61 14.03Q206.34 14.03 207.03 13.65Q207.72 13.28 208.20 12.74L208.20 12.74L208.35 12.99Q208.18 13.25 207.89 13.51Q207.61 13.77 207.22 14.02Q206.83 14.27 206.33 14.42Q205.82 14.57 205.30 14.57L205.30 14.57Q203.72 14.57 202.76 13.40Q201.80 12.22 201.80 10.25ZM216.81 9.75L216.81 9.75Q216.81 11.03 217.17 12.01Q217.53 13.00 218.25 13.57Q218.97 14.14 219.95 14.14L219.95 14.14Q220.52 14.14 221.01 13.92Q221.50 13.70 221.85 13.33Q222.20 12.96 222.44 12.49Q222.68 12.01 222.80 11.50Q222.91 10.99 222.91 10.48L222.91 10.48Q222.91 8.50 222.06 7.29Q221.21 6.07 219.76 6.07L219.76 6.07Q219.18 6.07 218.69 6.28Q218.20 6.49 217.85 6.85Q217.51 7.21 217.27 7.69Q217.03 8.16 216.92 8.69Q216.81 9.21 216.81 9.75ZM216.06 10.16L216.06 10.16Q216.06 8.16 217.15 6.92Q218.25 5.69 220.09 5.69L220.09 5.69Q221.22 5.69 222.04 6.27Q222.86 6.86 223.25 7.84Q223.65 8.83 223.65 10.11L223.65 10.11Q223.65 10.75 223.50 11.38Q223.35 12.00 223.03 12.58Q222.70 13.17 222.24 13.61Q221.78 14.05 221.10 14.32Q220.42 14.58 219.62 14.58L219.62 14.58Q218.57 14.58 217.74 13.98Q216.92 13.37 216.49 12.37Q216.06 11.37 216.06 10.16ZM234.18 14.40L231.35 14.40L231.38 14.17L232.52 13.96L233.09 6.36L231.83 6.14L231.88 5.89L234.06 5.89L234.55 7.18L236.69 12.84L239.14 6.88L239.56 5.89L241.79 5.89L241.75 6.14L240.58 6.34L240.95 14.01L242.18 14.12L242.17 14.40L239.01 14.40L239.05 14.17L240.22 13.96L239.83 6.41L236.65 13.99L236.31 14.05L233.52 6.53L232.98 14.01L234.22 14.12L234.18 14.40ZM253.29 14.40L249.88 14.40L249.92 14.11L251.00 13.90L251.00 6.51L249.89 6.36L249.95 6.12Q250.12 6.09 250.57 6.02Q251.02 5.94 251.24 5.91Q251.47 5.88 251.88 5.84Q252.29 5.81 252.71 5.81L252.71 5.81Q253.40 5.81 253.99 5.96Q254.58 6.10 255.04 6.40Q255.50 6.69 255.76 7.18Q256.02 7.66 256.02 8.29L256.02 8.29Q256.02 8.90 255.74 9.43Q255.46 9.97 255.00 10.33Q254.54 10.69 253.93 10.90Q253.33 11.10 252.70 11.10L252.70 11.10Q252.42 11.10 252.36 11.09L252.36 11.09L252.29 10.80L252.66 10.78Q253.32 10.75 253.81 10.55Q254.31 10.36 254.60 10.03Q254.89 9.70 255.03 9.30Q255.17 8.90 255.17 8.43L255.17 8.43Q255.17 7.98 255.00 7.57Q254.84 7.16 254.52 6.83Q254.19 6.50 253.67 6.31Q253.15 6.11 252.50 6.11L252.50 6.11L251.75 6.15L251.75 13.95L253.35 14.08L253.29 14.40ZM264.93 6.36L263.71 6.18L263.76 5.89L269.95 5.89L269.74 8.07L269.42 8.03L269.29 6.24L265.64 6.24L265.64 9.89L267.93 9.89L268.19 8.94L268.56 8.89L268.33 11.55L267.98 11.61L267.87 10.26L265.64 10.26L265.64 14.03L269.49 14.03L269.99 12.19L270.27 12.26L270.07 14.40L263.73 14.40L263.77 14.11L264.93 13.90L264.93 6.36ZM278.04 8.09L277.98 5.89L285.04 5.89L284.80 8.16L284.46 8.12L284.34 6.24L281.80 6.24L281.80 13.90L283.01 14.08L282.94 14.40L279.84 14.40L279.88 14.11L281.07 13.90L281.07 6.24L278.64 6.24L278.40 8.15L278.04 8.09ZM293.97 6.36L292.75 6.18L292.80 5.89L298.99 5.89L298.78 8.07L298.46 8.03L298.33 6.24L294.68 6.24L294.68 9.89L296.97 9.89L297.23 8.94L297.60 8.89L297.37 11.55L297.02 11.61L296.91 10.26L294.68 10.26L294.68 14.03L298.53 14.03L299.03 12.19L299.31 12.26L299.11 14.40L292.77 14.40L292.81 14.11L293.97 13.90L293.97 6.36Z"></path></g></svg>